<?xml version="1.0" encoding="UTF-8" standalone="no"?>
<!DOCTYPE svg PUBLIC "-//W3C//DTD SVG 1.1//EN"
 "http://www.w3.org/Graphics/SVG/1.1/DTD/svg11.dtd">
<!-- Generated by graphviz version 2.43.0 (0)
 -->
<!-- Pages: 1 -->
<svg width="8229pt" height="332pt"
 viewBox="0.00 0.00 8229.03 332.00" xmlns="http://www.w3.org/2000/svg" xmlns:xlink="http://www.w3.org/1999/xlink">
<g id="graph0" class="graph" transform="scale(1 1) rotate(0) translate(4 328)">
<polygon fill="white" stroke="transparent" points="-4,4 -4,-328 8225.03,-328 8225.03,4 -4,4"/>
<!-- WHAT IS THE UNKNOWN? -->
<g id="node1" class="node">
<title>WHAT IS THE UNKNOWN?</title>
<ellipse fill="none" stroke="black" cx="1874.89" cy="-306" rx="137.58" ry="18"/>
<text text-anchor="middle" x="1874.89" y="-302.3" font-family="Times,serif" font-size="14.00">WHAT IS THE UNKNOWN?</text>
</g>
<!-- CONDITION -->
<g id="node2" class="node">
<title>CONDITION</title>
<ellipse fill="none" stroke="black" cx="1284.89" cy="-234" rx="67.69" ry="18"/>
<text text-anchor="middle" x="1284.89" y="-230.3" font-family="Times,serif" font-size="14.00">CONDITION</text>
</g>
<!-- WHAT IS THE UNKNOWN?&#45;&#45;CONDITION -->
<g id="edge1" class="edge">
<title>WHAT IS THE UNKNOWN?&#45;&#45;CONDITION</title>
<path fill="none" stroke="black" d="M1776.47,-293.32C1653.52,-278.74 1446.97,-254.23 1345.24,-242.16"/>
</g>
<!-- PRACTICAL PROBLEMS -->
<g id="node3" class="node">
<title>PRACTICAL PROBLEMS</title>
<ellipse fill="none" stroke="black" cx="2011.89" cy="-234" rx="124.28" ry="18"/>
<text text-anchor="middle" x="2011.89" y="-230.3" font-family="Times,serif" font-size="14.00">PRACTICAL PROBLEMS</text>
</g>
<!-- WHAT IS THE UNKNOWN?&#45;&#45;PRACTICAL PROBLEMS -->
<g id="edge2" class="edge">
<title>WHAT IS THE UNKNOWN?&#45;&#45;PRACTICAL PROBLEMS</title>
<path fill="none" stroke="black" d="M1907.36,-288.41C1929.2,-277.25 1957.87,-262.6 1979.66,-251.47"/>
</g>
<!-- PUZZLES -->
<g id="node4" class="node">
<title>PUZZLES</title>
<ellipse fill="none" stroke="black" cx="3126.89" cy="-234" rx="55.79" ry="18"/>
<text text-anchor="middle" x="3126.89" y="-230.3" font-family="Times,serif" font-size="14.00">PUZZLES</text>
</g>
<!-- WHAT IS THE UNKNOWN?&#45;&#45;PUZZLES -->
<g id="edge3" class="edge">
<title>WHAT IS THE UNKNOWN?&#45;&#45;PUZZLES</title>
<path fill="none" stroke="black" d="M1998.65,-298.08C2265.33,-283.17 2885.2,-248.51 3072.4,-238.05"/>
</g>
<!-- SETTING UP EQUATIONS -->
<g id="node5" class="node">
<title>SETTING UP EQUATIONS</title>
<ellipse fill="none" stroke="black" cx="1736.89" cy="-234" rx="132.68" ry="18"/>
<text text-anchor="middle" x="1736.89" y="-230.3" font-family="Times,serif" font-size="14.00">SETTING UP EQUATIONS</text>
</g>
<!-- WHAT IS THE UNKNOWN?&#45;&#45;SETTING UP EQUATIONS -->
<g id="edge4" class="edge">
<title>WHAT IS THE UNKNOWN?&#45;&#45;SETTING UP EQUATIONS</title>
<path fill="none" stroke="black" d="M1842.19,-288.41C1820.19,-277.25 1791.31,-262.6 1769.36,-251.47"/>
</g>
<!-- IS IT POSSIBLE TO SATISFY THE CONDITION? -->
<g id="node6" class="node">
<title>IS IT POSSIBLE TO SATISFY THE CONDITION?</title>
<ellipse fill="none" stroke="black" cx="248.89" cy="-162" rx="231.26" ry="18"/>
<text text-anchor="middle" x="248.89" y="-158.3" font-family="Times,serif" font-size="14.00">IS IT POSSIBLE TO SATISFY THE CONDITION?</text>
</g>
<!-- CONDITION&#45;&#45;IS IT POSSIBLE TO SATISFY THE CONDITION? -->
<g id="edge5" class="edge">
<title>CONDITION&#45;&#45;IS IT POSSIBLE TO SATISFY THE CONDITION?</title>
<path fill="none" stroke="black" d="M1220.14,-228.78C1084.5,-219.93 760.58,-198.67 488.89,-180 464.3,-178.31 438.3,-176.5 412.84,-174.71"/>
</g>
<!-- SEPARATE THE VARIOUS PARTS OF THE CONDITION -->
<g id="node7" class="node">
<title>SEPARATE THE VARIOUS PARTS OF THE CONDITION</title>
<ellipse fill="none" stroke="black" cx="762.89" cy="-162" rx="264.55" ry="18"/>
<text text-anchor="middle" x="762.89" y="-158.3" font-family="Times,serif" font-size="14.00">SEPARATE THE VARIOUS PARTS OF THE CONDITION</text>
</g>
<!-- CONDITION&#45;&#45;SEPARATE THE VARIOUS PARTS OF THE CONDITION -->
<g id="edge6" class="edge">
<title>CONDITION&#45;&#45;SEPARATE THE VARIOUS PARTS OF THE CONDITION</title>
<path fill="none" stroke="black" d="M1226.03,-225.11C1141.57,-213.78 984.36,-192.7 876.73,-178.27"/>
</g>
<!-- PROBLEMS TO FIND, PROBLEMS TO PROVE -->
<g id="node8" class="node">
<title>PROBLEMS TO FIND, PROBLEMS TO PROVE</title>
<ellipse fill="none" stroke="black" cx="1427.89" cy="-162" rx="223.66" ry="18"/>
<text text-anchor="middle" x="1427.89" y="-158.3" font-family="Times,serif" font-size="14.00">PROBLEMS TO FIND, PROBLEMS TO PROVE</text>
</g>
<!-- CONDITION&#45;&#45;PROBLEMS TO FIND, PROBLEMS TO PROVE -->
<g id="edge7" class="edge">
<title>CONDITION&#45;&#45;PROBLEMS TO FIND, PROBLEMS TO PROVE</title>
<path fill="none" stroke="black" d="M1315.92,-217.81C1338.76,-206.63 1369.8,-191.43 1393.41,-179.88"/>
</g>
<!-- DID YOU USE ALL THE DATA? -->
<g id="node9" class="node">
<title>DID YOU USE ALL THE DATA?</title>
<ellipse fill="none" stroke="black" cx="2388.89" cy="-162" rx="153.27" ry="18"/>
<text text-anchor="middle" x="2388.89" y="-158.3" font-family="Times,serif" font-size="14.00">DID YOU USE ALL THE DATA?</text>
</g>
<!-- PRACTICAL PROBLEMS&#45;&#45;DID YOU USE ALL THE DATA? -->
<g id="edge8" class="edge">
<title>PRACTICAL PROBLEMS&#45;&#45;DID YOU USE ALL THE DATA?</title>
<path fill="none" stroke="black" d="M2085.03,-219.42C2149.91,-207.37 2244.42,-189.83 2310.76,-177.51"/>
</g>
<!-- DO YOU KNOW A RELATED PROBLEM? -->
<g id="node10" class="node">
<title>DO YOU KNOW A RELATED PROBLEM?</title>
<ellipse fill="none" stroke="black" cx="1867.89" cy="-162" rx="198.47" ry="18"/>
<text text-anchor="middle" x="1867.89" y="-158.3" font-family="Times,serif" font-size="14.00">DO YOU KNOW A RELATED PROBLEM?</text>
</g>
<!-- PRACTICAL PROBLEMS&#45;&#45;DO YOU KNOW A RELATED PROBLEM? -->
<g id="edge9" class="edge">
<title>PRACTICAL PROBLEMS&#45;&#45;DO YOU KNOW A RELATED PROBLEM?</title>
<path fill="none" stroke="black" d="M1978.13,-216.59C1955.35,-205.52 1925.38,-190.95 1902.44,-179.8"/>
</g>
<!-- AUXILIARY PROBLEM -->
<g id="node11" class="node">
<title>AUXILIARY PROBLEM</title>
<ellipse fill="none" stroke="black" cx="3414.89" cy="-162" rx="114.28" ry="18"/>
<text text-anchor="middle" x="3414.89" y="-158.3" font-family="Times,serif" font-size="14.00">AUXILIARY PROBLEM</text>
</g>
<!-- PUZZLES&#45;&#45;AUXILIARY PROBLEM -->
<g id="edge10" class="edge">
<title>PUZZLES&#45;&#45;AUXILIARY PROBLEM</title>
<path fill="none" stroke="black" d="M3170.01,-222.52C3219.28,-210.54 3300.22,-190.87 3355.46,-177.45"/>
</g>
<!-- COULD YOU RESTATE THE PROBLEM? -->
<g id="node12" class="node">
<title>COULD YOU RESTATE THE PROBLEM?</title>
<ellipse fill="none" stroke="black" cx="2756.89" cy="-162" rx="196.87" ry="18"/>
<text text-anchor="middle" x="2756.89" y="-158.3" font-family="Times,serif" font-size="14.00">COULD YOU RESTATE THE PROBLEM?</text>
</g>
<!-- PUZZLES&#45;&#45;COULD YOU RESTATE THE PROBLEM? -->
<g id="edge11" class="edge">
<title>PUZZLES&#45;&#45;COULD YOU RESTATE THE PROBLEM?</title>
<path fill="none" stroke="black" d="M3080.03,-224.13C3019.36,-212.66 2912.64,-192.47 2838.52,-178.44"/>
</g>
<!-- IF YOU CANNOT SOLVE THE PROPOSED PROBLEM -->
<g id="node13" class="node">
<title>IF YOU CANNOT SOLVE THE PROPOSED PROBLEM</title>
<ellipse fill="none" stroke="black" cx="3803.89" cy="-162" rx="256.95" ry="18"/>
<text text-anchor="middle" x="3803.89" y="-158.3" font-family="Times,serif" font-size="14.00">IF YOU CANNOT SOLVE THE PROPOSED PROBLEM</text>
</g>
<!-- PUZZLES&#45;&#45;IF YOU CANNOT SOLVE THE PROPOSED PROBLEM -->
<g id="edge12" class="edge">
<title>PUZZLES&#45;&#45;IF YOU CANNOT SOLVE THE PROPOSED PROBLEM</title>
<path fill="none" stroke="black" d="M3179.17,-227.59C3282.53,-216.91 3516,-192.77 3666.42,-177.21"/>
</g>
<!-- VARIATION OF THE PROBLEM -->
<g id="node14" class="node">
<title>VARIATION OF THE PROBLEM</title>
<ellipse fill="none" stroke="black" cx="3126.89" cy="-162" rx="155.17" ry="18"/>
<text text-anchor="middle" x="3126.89" y="-158.3" font-family="Times,serif" font-size="14.00">VARIATION OF THE PROBLEM</text>
</g>
<!-- PUZZLES&#45;&#45;VARIATION OF THE PROBLEM -->
<g id="edge13" class="edge">
<title>PUZZLES&#45;&#45;VARIATION OF THE PROBLEM</title>
<path fill="none" stroke="black" d="M3126.89,-215.7C3126.89,-204.85 3126.89,-190.92 3126.89,-180.1"/>
</g>
<!-- DEFINITION -->
<g id="node15" class="node">
<title>DEFINITION</title>
<ellipse fill="none" stroke="black" cx="1115.89" cy="-162" rx="70.39" ry="18"/>
<text text-anchor="middle" x="1115.89" y="-158.3" font-family="Times,serif" font-size="14.00">DEFINITION</text>
</g>
<!-- SETTING UP EQUATIONS&#45;&#45;DEFINITION -->
<g id="edge14" class="edge">
<title>SETTING UP EQUATIONS&#45;&#45;DEFINITION</title>
<path fill="none" stroke="black" d="M1620.11,-225.46C1510.01,-217.44 1340.62,-202.73 1194.89,-180 1185.47,-178.53 1175.47,-176.64 1165.88,-174.66"/>
</g>
<!-- SYMMETRY -->
<g id="node16" class="node">
<title>SYMMETRY</title>
<ellipse fill="none" stroke="black" cx="2150.89" cy="-162" rx="66.09" ry="18"/>
<text text-anchor="middle" x="2150.89" y="-158.3" font-family="Times,serif" font-size="14.00">SYMMETRY</text>
</g>
<!-- SETTING UP EQUATIONS&#45;&#45;SYMMETRY -->
<g id="edge15" class="edge">
<title>SETTING UP EQUATIONS&#45;&#45;SYMMETRY</title>
<path fill="none" stroke="black" d="M1826.12,-220.61C1894.42,-210.74 1990.86,-195.97 2074.89,-180 2083.79,-178.31 2093.24,-176.34 2102.34,-174.35"/>
</g>
<!-- CONTRADICTORY -->
<g id="node17" class="node">
<title>CONTRADICTORY</title>
<ellipse fill="none" stroke="black" cx="94.89" cy="-90" rx="94.78" ry="18"/>
<text text-anchor="middle" x="94.89" y="-86.3" font-family="Times,serif" font-size="14.00">CONTRADICTORY</text>
</g>
<!-- IS IT POSSIBLE TO SATISFY THE CONDITION?&#45;&#45;CONTRADICTORY -->
<g id="edge16" class="edge">
<title>IS IT POSSIBLE TO SATISFY THE CONDITION?&#45;&#45;CONTRADICTORY</title>
<path fill="none" stroke="black" d="M211.61,-144.05C186.69,-132.73 154.12,-117.92 129.72,-106.83"/>
</g>
<!-- REDUNDANT -->
<g id="node18" class="node">
<title>REDUNDANT</title>
<ellipse fill="none" stroke="black" cx="282.89" cy="-90" rx="74.99" ry="18"/>
<text text-anchor="middle" x="282.89" y="-86.3" font-family="Times,serif" font-size="14.00">REDUNDANT</text>
</g>
<!-- IS IT POSSIBLE TO SATISFY THE CONDITION?&#45;&#45;REDUNDANT -->
<g id="edge17" class="edge">
<title>IS IT POSSIBLE TO SATISFY THE CONDITION?&#45;&#45;REDUNDANT</title>
<path fill="none" stroke="black" d="M257.3,-143.7C262.57,-132.85 269.33,-118.92 274.58,-108.1"/>
</g>
<!-- DECOMPOSING AND RECOMBINING -->
<g id="node33" class="node">
<title>DECOMPOSING AND RECOMBINING</title>
<ellipse fill="none" stroke="black" cx="597.89" cy="-90" rx="187.67" ry="18"/>
<text text-anchor="middle" x="597.89" y="-86.3" font-family="Times,serif" font-size="14.00">DECOMPOSING AND RECOMBINING</text>
</g>
<!-- SEPARATE THE VARIOUS PARTS OF THE CONDITION&#45;&#45;DECOMPOSING AND RECOMBINING -->
<g id="edge33" class="edge">
<title>SEPARATE THE VARIOUS PARTS OF THE CONDITION&#45;&#45;DECOMPOSING AND RECOMBINING</title>
<path fill="none" stroke="black" d="M722.95,-144.05C696.91,-133.01 663.09,-118.66 637.18,-107.67"/>
</g>
<!-- COULD YOU DERIVE SOMETHING USEFUL FROM THE DATA? -->
<g id="node34" class="node">
<title>COULD YOU DERIVE SOMETHING USEFUL FROM THE DATA?</title>
<ellipse fill="none" stroke="black" cx="1427.89" cy="-90" rx="307.35" ry="18"/>
<text text-anchor="middle" x="1427.89" y="-86.3" font-family="Times,serif" font-size="14.00">COULD YOU DERIVE SOMETHING USEFUL FROM THE DATA?</text>
</g>
<!-- PROBLEMS TO FIND, PROBLEMS TO PROVE&#45;&#45;COULD YOU DERIVE SOMETHING USEFUL FROM THE DATA? -->
<g id="edge34" class="edge">
<title>PROBLEMS TO FIND, PROBLEMS TO PROVE&#45;&#45;COULD YOU DERIVE SOMETHING USEFUL FROM THE DATA?</title>
<path fill="none" stroke="black" d="M1427.89,-143.7C1427.89,-132.85 1427.89,-118.92 1427.89,-108.1"/>
</g>
<!-- LOOK AT THE UNKNOWN -->
<g id="node35" class="node">
<title>LOOK AT THE UNKNOWN</title>
<ellipse fill="none" stroke="black" cx="1886.89" cy="-90" rx="133.78" ry="18"/>
<text text-anchor="middle" x="1886.89" y="-86.3" font-family="Times,serif" font-size="14.00">LOOK AT THE UNKNOWN</text>
</g>
<!-- PROBLEMS TO FIND, PROBLEMS TO PROVE&#45;&#45;LOOK AT THE UNKNOWN -->
<g id="edge35" class="edge">
<title>PROBLEMS TO FIND, PROBLEMS TO PROVE&#45;&#45;LOOK AT THE UNKNOWN</title>
<path fill="none" stroke="black" d="M1527.21,-145.85C1609.19,-133.35 1724.28,-115.8 1802.02,-103.94"/>
</g>
<!-- AUXILIARY ELEMENTS -->
<g id="node36" class="node">
<title>AUXILIARY ELEMENTS</title>
<ellipse fill="none" stroke="black" cx="2864.89" cy="-90" rx="120.78" ry="18"/>
<text text-anchor="middle" x="2864.89" y="-86.3" font-family="Times,serif" font-size="14.00">AUXILIARY ELEMENTS</text>
</g>
<!-- DID YOU USE ALL THE DATA?&#45;&#45;AUXILIARY ELEMENTS -->
<g id="edge36" class="edge">
<title>DID YOU USE ALL THE DATA?&#45;&#45;AUXILIARY ELEMENTS</title>
<path fill="none" stroke="black" d="M2480.39,-147.54C2567.61,-134.72 2697.81,-115.57 2782.05,-103.18"/>
</g>
<!-- PROGRESS AND ACHIEVEMENT -->
<g id="node37" class="node">
<title>PROGRESS AND ACHIEVEMENT</title>
<ellipse fill="none" stroke="black" cx="2293.89" cy="-90" rx="165.97" ry="18"/>
<text text-anchor="middle" x="2293.89" y="-86.3" font-family="Times,serif" font-size="14.00">PROGRESS AND ACHIEVEMENT</text>
</g>
<!-- DID YOU USE ALL THE DATA?&#45;&#45;PROGRESS AND ACHIEVEMENT -->
<g id="edge37" class="edge">
<title>DID YOU USE ALL THE DATA?&#45;&#45;PROGRESS AND ACHIEVEMENT</title>
<path fill="none" stroke="black" d="M2365.89,-144.05C2351.07,-133.13 2331.86,-118.97 2317.01,-108.03"/>
</g>
<!-- THE INTELLIGENT READER -->
<g id="node38" class="node">
<title>THE INTELLIGENT READER</title>
<ellipse fill="none" stroke="black" cx="3933.89" cy="-90" rx="144.87" ry="18"/>
<text text-anchor="middle" x="3933.89" y="-86.3" font-family="Times,serif" font-size="14.00">THE INTELLIGENT READER</text>
</g>
<!-- DID YOU USE ALL THE DATA?&#45;&#45;THE INTELLIGENT READER -->
<g id="edge38" class="edge">
<title>DID YOU USE ALL THE DATA?&#45;&#45;THE INTELLIGENT READER</title>
<path fill="none" stroke="black" d="M2493.8,-148.83C2512.78,-146.96 2532.41,-145.24 2550.89,-144 3096.12,-107.46 3234.76,-146.01 3779.89,-108 3797.6,-106.77 3816.42,-105.04 3834.59,-103.15"/>
</g>
<!-- DO YOU KNOW A RELATED PROBLEM?&#45;&#45;LOOK AT THE UNKNOWN -->
<g id="edge39" class="edge">
<title>DO YOU KNOW A RELATED PROBLEM?&#45;&#45;LOOK AT THE UNKNOWN</title>
<path fill="none" stroke="black" d="M1872.59,-143.7C1875.53,-132.85 1879.31,-118.92 1882.25,-108.1"/>
</g>
<!-- DO YOU KNOW A RELATED PROBLEM?&#45;&#45;PROGRESS AND ACHIEVEMENT -->
<g id="edge40" class="edge">
<title>DO YOU KNOW A RELATED PROBLEM?&#45;&#45;PROGRESS AND ACHIEVEMENT</title>
<path fill="none" stroke="black" d="M1959.28,-145.98C2032.5,-133.95 2134.56,-117.18 2206.66,-105.33"/>
</g>
<!-- ANALOGY -->
<g id="node39" class="node">
<title>ANALOGY</title>
<ellipse fill="none" stroke="black" cx="3712.89" cy="-90" rx="57.69" ry="18"/>
<text text-anchor="middle" x="3712.89" y="-86.3" font-family="Times,serif" font-size="14.00">ANALOGY</text>
</g>
<!-- DO YOU KNOW A RELATED PROBLEM?&#45;&#45;ANALOGY -->
<g id="edge41" class="edge">
<title>DO YOU KNOW A RELATED PROBLEM?&#45;&#45;ANALOGY</title>
<path fill="none" stroke="black" d="M2002.92,-148.81C2027.2,-146.94 2052.28,-145.23 2075.89,-144 2424.4,-125.78 3300.12,-155.21 3645.89,-108 3654.45,-106.83 3663.5,-104.97 3672.08,-102.91"/>
</g>
<!-- GENERALIZATION -->
<g id="node40" class="node">
<title>GENERALIZATION</title>
<ellipse fill="none" stroke="black" cx="3537.89" cy="-90" rx="98.58" ry="18"/>
<text text-anchor="middle" x="3537.89" y="-86.3" font-family="Times,serif" font-size="14.00">GENERALIZATION</text>
</g>
<!-- DO YOU KNOW A RELATED PROBLEM?&#45;&#45;GENERALIZATION -->
<g id="edge42" class="edge">
<title>DO YOU KNOW A RELATED PROBLEM?&#45;&#45;GENERALIZATION</title>
<path fill="none" stroke="black" d="M2003.48,-148.84C2027.58,-146.98 2052.47,-145.27 2075.89,-144 2677,-111.47 2830.41,-162.92 3429.89,-108 3442.84,-106.81 3456.59,-105.05 3469.79,-103.09"/>
</g>
<!-- AUXILIARY PROBLEM&#45;&#45;LOOK AT THE UNKNOWN -->
<g id="edge43" class="edge">
<title>AUXILIARY PROBLEM&#45;&#45;LOOK AT THE UNKNOWN</title>
<path fill="none" stroke="black" d="M3335.98,-148.91C3321.04,-146.98 3305.51,-145.22 3290.89,-144 2771.57,-100.55 2639.32,-135.05 2118.89,-108 2079.47,-105.95 2036.33,-102.99 1998.05,-100.11"/>
</g>
<!-- AUXILIARY PROBLEM&#45;&#45;ANALOGY -->
<g id="edge44" class="edge">
<title>AUXILIARY PROBLEM&#45;&#45;ANALOGY</title>
<path fill="none" stroke="black" d="M3478.22,-146.88C3524.69,-136.42 3589.3,-121.67 3645.89,-108 3653.59,-106.14 3661.77,-104.11 3669.68,-102.12"/>
</g>
<!-- AUXILIARY PROBLEM&#45;&#45;GENERALIZATION -->
<g id="edge45" class="edge">
<title>AUXILIARY PROBLEM&#45;&#45;GENERALIZATION</title>
<path fill="none" stroke="black" d="M3444.04,-144.41C3463.65,-133.25 3489.39,-118.6 3508.95,-107.47"/>
</g>
<!-- INDUCTION AND MATHEMATICAL INDUCTION -->
<g id="node41" class="node">
<title>INDUCTION AND MATHEMATICAL INDUCTION</title>
<ellipse fill="none" stroke="black" cx="4500.89" cy="-90" rx="235.06" ry="18"/>
<text text-anchor="middle" x="4500.89" y="-86.3" font-family="Times,serif" font-size="14.00">INDUCTION AND MATHEMATICAL INDUCTION</text>
</g>
<!-- AUXILIARY PROBLEM&#45;&#45;INDUCTION AND MATHEMATICAL INDUCTION -->
<g id="edge46" class="edge">
<title>AUXILIARY PROBLEM&#45;&#45;INDUCTION AND MATHEMATICAL INDUCTION</title>
<path fill="none" stroke="black" d="M3494.17,-149.01C3508.69,-147.11 3523.73,-145.33 3537.89,-144 3856,-114.1 3936.95,-127.06 4255.89,-108 4281.85,-106.45 4309.35,-104.67 4336.19,-102.86"/>
</g>
<!-- INVENTOR’S PARADOX -->
<g id="node42" class="node">
<title>INVENTOR’S PARADOX</title>
<ellipse fill="none" stroke="black" cx="3300.89" cy="-90" rx="120.48" ry="18"/>
<text text-anchor="middle" x="3300.89" y="-86.3" font-family="Times,serif" font-size="14.00">INVENTOR’S PARADOX</text>
</g>
<!-- AUXILIARY PROBLEM&#45;&#45;INVENTOR’S PARADOX -->
<g id="edge47" class="edge">
<title>AUXILIARY PROBLEM&#45;&#45;INVENTOR’S PARADOX</title>
<path fill="none" stroke="black" d="M3387.88,-144.41C3369.83,-133.33 3346.19,-118.82 3328.11,-107.71"/>
</g>
<!-- IF YOU CANNOT SOLVE THE PROPOSED PROBLEM&#45;&#45;ANALOGY -->
<g id="edge48" class="edge">
<title>IF YOU CANNOT SOLVE THE PROPOSED PROBLEM&#45;&#45;ANALOGY</title>
<path fill="none" stroke="black" d="M3781.86,-144.05C3767.13,-132.73 3747.89,-117.92 3733.47,-106.83"/>
</g>
<!-- IF YOU CANNOT SOLVE THE PROPOSED PROBLEM&#45;&#45;GENERALIZATION -->
<g id="edge49" class="edge">
<title>IF YOU CANNOT SOLVE THE PROPOSED PROBLEM&#45;&#45;GENERALIZATION</title>
<path fill="none" stroke="black" d="M3741.19,-144.5C3695.73,-132.54 3634.88,-116.52 3591.64,-105.14"/>
</g>
<!-- VARIATION OF THE PROBLEM&#45;&#45;AUXILIARY ELEMENTS -->
<g id="edge50" class="edge">
<title>VARIATION OF THE PROBLEM&#45;&#45;AUXILIARY ELEMENTS</title>
<path fill="none" stroke="black" d="M3068.09,-145.29C3024.19,-133.56 2964.55,-117.63 2921.25,-106.06"/>
</g>
<!-- VARIATION OF THE PROBLEM&#45;&#45;ANALOGY -->
<g id="edge51" class="edge">
<title>VARIATION OF THE PROBLEM&#45;&#45;ANALOGY</title>
<path fill="none" stroke="black" d="M3238.72,-149.46C3256.51,-147.63 3274.7,-145.76 3291.89,-144 3449.21,-127.9 3490.16,-135.52 3645.89,-108 3654.16,-106.54 3662.92,-104.6 3671.28,-102.57"/>
</g>
<!-- VARIATION OF THE PROBLEM&#45;&#45;GENERALIZATION -->
<g id="edge52" class="edge">
<title>VARIATION OF THE PROBLEM&#45;&#45;GENERALIZATION</title>
<path fill="none" stroke="black" d="M3210.56,-146.75C3286.49,-133.82 3397.14,-114.97 3468.33,-102.85"/>
</g>
<!-- DEFINITION&#45;&#45;COULD YOU DERIVE SOMETHING USEFUL FROM THE DATA? -->
<g id="edge53" class="edge">
<title>DEFINITION&#45;&#45;COULD YOU DERIVE SOMETHING USEFUL FROM THE DATA?</title>
<path fill="none" stroke="black" d="M1167.06,-149.52C1217.98,-138.1 1296.61,-120.45 1354.24,-107.52"/>
</g>
<!-- DEFINITION&#45;&#45;LOOK AT THE UNKNOWN -->
<g id="edge54" class="edge">
<title>DEFINITION&#45;&#45;LOOK AT THE UNKNOWN</title>
<path fill="none" stroke="black" d="M1165.42,-149.18C1175.15,-147.19 1185.3,-145.34 1194.89,-144 1437.07,-110.19 1500.4,-130.44 1743.89,-108 1759.82,-106.53 1776.73,-104.73 1793.12,-102.87"/>
</g>
<!-- CAN YOU USE THE RESULT? -->
<g id="node43" class="node">
<title>CAN YOU USE THE RESULT?</title>
<ellipse fill="none" stroke="black" cx="952.89" cy="-90" rx="149.47" ry="18"/>
<text text-anchor="middle" x="952.89" y="-86.3" font-family="Times,serif" font-size="14.00">CAN YOU USE THE RESULT?</text>
</g>
<!-- DEFINITION&#45;&#45;CAN YOU USE THE RESULT? -->
<g id="edge55" class="edge">
<title>DEFINITION&#45;&#45;CAN YOU USE THE RESULT?</title>
<path fill="none" stroke="black" d="M1081.32,-146.15C1054.88,-134.8 1018.43,-119.14 991.11,-107.41"/>
</g>
<!-- SYMMETRY&#45;&#45;AUXILIARY ELEMENTS -->
<g id="edge56" class="edge">
<title>SYMMETRY&#45;&#45;AUXILIARY ELEMENTS</title>
<path fill="none" stroke="black" d="M2198.54,-149.29C2207.9,-147.29 2217.67,-145.41 2226.89,-144 2408.73,-116.24 2622.1,-102.22 2750.24,-95.78"/>
</g>
<!-- DRAW A FIGURE -->
<g id="node19" class="node">
<title>DRAW A FIGURE</title>
<ellipse fill="none" stroke="black" cx="4992.89" cy="-306" rx="90.98" ry="18"/>
<text text-anchor="middle" x="4992.89" y="-302.3" font-family="Times,serif" font-size="14.00">DRAW A FIGURE</text>
</g>
<!-- FIGURES -->
<g id="node20" class="node">
<title>FIGURES</title>
<ellipse fill="none" stroke="black" cx="4441.89" cy="-234" rx="55.79" ry="18"/>
<text text-anchor="middle" x="4441.89" y="-230.3" font-family="Times,serif" font-size="14.00">FIGURES</text>
</g>
<!-- DRAW A FIGURE&#45;&#45;FIGURES -->
<g id="edge18" class="edge">
<title>DRAW A FIGURE&#45;&#45;FIGURES</title>
<path fill="none" stroke="black" d="M4918.58,-295.56C4804.9,-281.12 4590.73,-253.91 4492.93,-241.48"/>
</g>
<!-- NOTATION -->
<g id="node21" class="node">
<title>NOTATION</title>
<ellipse fill="none" stroke="black" cx="5543.89" cy="-234" rx="61.99" ry="18"/>
<text text-anchor="middle" x="5543.89" y="-230.3" font-family="Times,serif" font-size="14.00">NOTATION</text>
</g>
<!-- DRAW A FIGURE&#45;&#45;NOTATION -->
<g id="edge19" class="edge">
<title>DRAW A FIGURE&#45;&#45;NOTATION</title>
<path fill="none" stroke="black" d="M5067.2,-295.56C5179.27,-281.32 5388.99,-254.68 5488.61,-242.02"/>
</g>
<!-- FIGURES&#45;&#45;IF YOU CANNOT SOLVE THE PROPOSED PROBLEM -->
<g id="edge20" class="edge">
<title>FIGURES&#45;&#45;IF YOU CANNOT SOLVE THE PROPOSED PROBLEM</title>
<path fill="none" stroke="black" d="M4389.95,-227.3C4291.83,-216.54 4076.46,-192.91 3935.92,-177.49"/>
</g>
<!-- FIGURES&#45;&#45;SYMMETRY -->
<g id="edge21" class="edge">
<title>FIGURES&#45;&#45;SYMMETRY</title>
<path fill="none" stroke="black" d="M4386.1,-232.32C4063.8,-228.31 2446.72,-206.95 2226.89,-180 2217.23,-178.82 2206.99,-176.95 2197.26,-174.89"/>
</g>
<!-- CAN YOU CHECK THE RESULT? -->
<g id="node22" class="node">
<title>CAN YOU CHECK THE RESULT?</title>
<ellipse fill="none" stroke="black" cx="4712.89" cy="-162" rx="163.57" ry="18"/>
<text text-anchor="middle" x="4712.89" y="-158.3" font-family="Times,serif" font-size="14.00">CAN YOU CHECK THE RESULT?</text>
</g>
<!-- FIGURES&#45;&#45;CAN YOU CHECK THE RESULT? -->
<g id="edge22" class="edge">
<title>FIGURES&#45;&#45;CAN YOU CHECK THE RESULT?</title>
<path fill="none" stroke="black" d="M4483.94,-222.14C4528.91,-210.52 4600.66,-191.99 4651.85,-178.77"/>
</g>
<!-- PAPPUS -->
<g id="node23" class="node">
<title>PAPPUS</title>
<ellipse fill="none" stroke="black" cx="5725.89" cy="-162" rx="48.99" ry="18"/>
<text text-anchor="middle" x="5725.89" y="-158.3" font-family="Times,serif" font-size="14.00">PAPPUS</text>
</g>
<!-- FIGURES&#45;&#45;PAPPUS -->
<g id="edge23" class="edge">
<title>FIGURES&#45;&#45;PAPPUS</title>
<path fill="none" stroke="black" d="M4497.61,-232.38C4705.82,-229.78 5438.01,-218.08 5667.89,-180 5675.45,-178.75 5683.41,-176.83 5690.94,-174.72"/>
</g>
<!-- SPECIALIZATION -->
<g id="node24" class="node">
<title>SPECIALIZATION</title>
<ellipse fill="none" stroke="black" cx="4171.89" cy="-162" rx="92.88" ry="18"/>
<text text-anchor="middle" x="4171.89" y="-158.3" font-family="Times,serif" font-size="14.00">SPECIALIZATION</text>
</g>
<!-- FIGURES&#45;&#45;SPECIALIZATION -->
<g id="edge24" class="edge">
<title>FIGURES&#45;&#45;SPECIALIZATION</title>
<path fill="none" stroke="black" d="M4399.7,-222.06C4352.69,-209.87 4276.56,-190.14 4225.4,-176.87"/>
</g>
<!-- DETERMINATION, HOPE, SUCCESS -->
<g id="node25" class="node">
<title>DETERMINATION, HOPE, SUCCESS</title>
<ellipse fill="none" stroke="black" cx="6746.89" cy="-162" rx="181.17" ry="18"/>
<text text-anchor="middle" x="6746.89" y="-158.3" font-family="Times,serif" font-size="14.00">DETERMINATION, HOPE, SUCCESS</text>
</g>
<!-- NOTATION&#45;&#45;DETERMINATION, HOPE, SUCCESS -->
<g id="edge25" class="edge">
<title>NOTATION&#45;&#45;DETERMINATION, HOPE, SUCCESS</title>
<path fill="none" stroke="black" d="M5603.96,-229.5C5784.75,-218.99 6327.73,-187.39 6594.96,-171.84"/>
</g>
<!-- EXAMINE YOUR GUESS -->
<g id="node26" class="node">
<title>EXAMINE YOUR GUESS</title>
<ellipse fill="none" stroke="black" cx="5917.89" cy="-162" rx="125.38" ry="18"/>
<text text-anchor="middle" x="5917.89" y="-158.3" font-family="Times,serif" font-size="14.00">EXAMINE YOUR GUESS</text>
</g>
<!-- NOTATION&#45;&#45;EXAMINE YOUR GUESS -->
<g id="edge26" class="edge">
<title>NOTATION&#45;&#45;EXAMINE YOUR GUESS</title>
<path fill="none" stroke="black" d="M5594.33,-223.56C5658.83,-211.49 5771,-190.49 5844.84,-176.67"/>
</g>
<!-- HEURISTIC -->
<g id="node27" class="node">
<title>HEURISTIC</title>
<ellipse fill="none" stroke="black" cx="7567.89" cy="-162" rx="65.79" ry="18"/>
<text text-anchor="middle" x="7567.89" y="-158.3" font-family="Times,serif" font-size="14.00">HEURISTIC</text>
</g>
<!-- NOTATION&#45;&#45;HEURISTIC -->
<g id="edge27" class="edge">
<title>NOTATION&#45;&#45;HEURISTIC</title>
<path fill="none" stroke="black" d="M5604.74,-230.9C5901.76,-220.62 7197.35,-175.82 7503.08,-165.24"/>
</g>
<!-- HEURISTIC REASONING -->
<g id="node28" class="node">
<title>HEURISTIC REASONING</title>
<ellipse fill="none" stroke="black" cx="5281.89" cy="-162" rx="128.88" ry="18"/>
<text text-anchor="middle" x="5281.89" y="-158.3" font-family="Times,serif" font-size="14.00">HEURISTIC REASONING</text>
</g>
<!-- NOTATION&#45;&#45;HEURISTIC REASONING -->
<g id="edge28" class="edge">
<title>NOTATION&#45;&#45;HEURISTIC REASONING</title>
<path fill="none" stroke="black" d="M5500.04,-221.28C5455.75,-209.45 5387.15,-191.12 5338.72,-178.18"/>
</g>
<!-- RULES OF DISCOVERY -->
<g id="node29" class="node">
<title>RULES OF DISCOVERY</title>
<ellipse fill="none" stroke="black" cx="5014.89" cy="-162" rx="120.48" ry="18"/>
<text text-anchor="middle" x="5014.89" y="-158.3" font-family="Times,serif" font-size="14.00">RULES OF DISCOVERY</text>
</g>
<!-- NOTATION&#45;&#45;RULES OF DISCOVERY -->
<g id="edge29" class="edge">
<title>NOTATION&#45;&#45;RULES OF DISCOVERY</title>
<path fill="none" stroke="black" d="M5488.78,-225.71C5396.82,-213.54 5211.39,-189 5101.73,-174.49"/>
</g>
<!-- SIGNS OF PROGRESS -->
<g id="node30" class="node">
<title>SIGNS OF PROGRESS</title>
<ellipse fill="none" stroke="black" cx="5543.89" cy="-162" rx="115.08" ry="18"/>
<text text-anchor="middle" x="5543.89" y="-158.3" font-family="Times,serif" font-size="14.00">SIGNS OF PROGRESS</text>
</g>
<!-- NOTATION&#45;&#45;SIGNS OF PROGRESS -->
<g id="edge30" class="edge">
<title>NOTATION&#45;&#45;SIGNS OF PROGRESS</title>
<path fill="none" stroke="black" d="M5543.89,-215.7C5543.89,-204.85 5543.89,-190.92 5543.89,-180.1"/>
</g>
<!-- WISDOM OF PROVERBS -->
<g id="node31" class="node">
<title>WISDOM OF PROVERBS</title>
<ellipse fill="none" stroke="black" cx="7956.89" cy="-162" rx="126.98" ry="18"/>
<text text-anchor="middle" x="7956.89" y="-158.3" font-family="Times,serif" font-size="14.00">WISDOM OF PROVERBS</text>
</g>
<!-- NOTATION&#45;&#45;WISDOM OF PROVERBS -->
<g id="edge31" class="edge">
<title>NOTATION&#45;&#45;WISDOM OF PROVERBS</title>
<path fill="none" stroke="black" d="M5605.3,-232.1C5857.39,-228.25 6837.47,-211.96 7642.89,-180 7709.17,-177.37 7783.27,-173.41 7842.83,-169.97"/>
</g>
<!-- WORKING BACKWARDS -->
<g id="node32" class="node">
<title>WORKING BACKWARDS</title>
<ellipse fill="none" stroke="black" cx="4406.89" cy="-162" rx="124.28" ry="18"/>
<text text-anchor="middle" x="4406.89" y="-158.3" font-family="Times,serif" font-size="14.00">WORKING BACKWARDS</text>
</g>
<!-- NOTATION&#45;&#45;WORKING BACKWARDS -->
<g id="edge32" class="edge">
<title>NOTATION&#45;&#45;WORKING BACKWARDS</title>
<path fill="none" stroke="black" d="M5482.66,-231.35C5325.7,-226.79 4896.27,-212.14 4539.89,-180 4524.82,-178.64 4508.83,-176.88 4493.36,-175"/>
</g>
<!-- CAN YOU CHECK THE RESULT?&#45;&#45;GENERALIZATION -->
<g id="edge57" class="edge">
<title>CAN YOU CHECK THE RESULT?&#45;&#45;GENERALIZATION</title>
<path fill="none" stroke="black" d="M4599.9,-148.95C4579.93,-147.09 4559.31,-145.34 4539.89,-144 4143.19,-116.54 4041.63,-146.98 3645.89,-108 3633.05,-106.73 3619.41,-104.94 3606.3,-102.99"/>
</g>
<!-- TEST BY DIMENSION -->
<g id="node44" class="node">
<title>TEST BY DIMENSION</title>
<ellipse fill="none" stroke="black" cx="4866.89" cy="-90" rx="113.18" ry="18"/>
<text text-anchor="middle" x="4866.89" y="-86.3" font-family="Times,serif" font-size="14.00">TEST BY DIMENSION</text>
</g>
<!-- CAN YOU CHECK THE RESULT?&#45;&#45;TEST BY DIMENSION -->
<g id="edge58" class="edge">
<title>CAN YOU CHECK THE RESULT?&#45;&#45;TEST BY DIMENSION</title>
<path fill="none" stroke="black" d="M4749.39,-144.41C4774.2,-133.13 4806.87,-118.28 4831.45,-107.11"/>
</g>
<!-- PAPPUS&#45;&#45;THE INTELLIGENT READER -->
<g id="edge59" class="edge">
<title>PAPPUS&#45;&#45;THE INTELLIGENT READER</title>
<path fill="none" stroke="black" d="M5691.26,-149.25C5683.65,-147.11 5675.56,-145.19 5667.89,-144 5320.84,-90.15 4438.32,-131.29 4087.89,-108 4070.04,-106.81 4051.08,-105.1 4032.78,-103.2"/>
</g>
<!-- PAPPUS&#45;&#45;INDUCTION AND MATHEMATICAL INDUCTION -->
<g id="edge60" class="edge">
<title>PAPPUS&#45;&#45;INDUCTION AND MATHEMATICAL INDUCTION</title>
<path fill="none" stroke="black" d="M5690.94,-149.25C5683.42,-147.15 5675.45,-145.24 5667.89,-144 5262.74,-77.76 5154.82,-130.27 4744.89,-108 4718.6,-106.57 4690.74,-104.84 4663.6,-103.03"/>
</g>
<!-- PAPPUS&#45;&#45;TEST BY DIMENSION -->
<g id="edge61" class="edge">
<title>PAPPUS&#45;&#45;TEST BY DIMENSION</title>
<path fill="none" stroke="black" d="M5690.93,-149.33C5683.4,-147.22 5675.44,-145.29 5667.89,-144 5370,-93.16 5289.71,-136.88 4988.89,-108 4974.84,-106.65 4959.93,-104.87 4945.53,-102.96"/>
</g>
<!-- BOLZANO -->
<g id="node45" class="node">
<title>BOLZANO</title>
<ellipse fill="none" stroke="black" cx="7567.89" cy="-90" rx="58.49" ry="18"/>
<text text-anchor="middle" x="7567.89" y="-86.3" font-family="Times,serif" font-size="14.00">BOLZANO</text>
</g>
<!-- PAPPUS&#45;&#45;BOLZANO -->
<g id="edge62" class="edge">
<title>PAPPUS&#45;&#45;BOLZANO</title>
<path fill="none" stroke="black" d="M5760.52,-149.24C5768.13,-147.1 5776.22,-145.18 5783.89,-144 6160.85,-85.85 7121.84,-158.57 7499.89,-108 7508.7,-106.82 7518.01,-104.93 7526.82,-102.84"/>
</g>
<!-- COROLLARY -->
<g id="node46" class="node">
<title>COROLLARY</title>
<ellipse fill="none" stroke="black" cx="5363.89" cy="-90" rx="69.59" ry="18"/>
<text text-anchor="middle" x="5363.89" y="-86.3" font-family="Times,serif" font-size="14.00">COROLLARY</text>
</g>
<!-- PAPPUS&#45;&#45;COROLLARY -->
<g id="edge63" class="edge">
<title>PAPPUS&#45;&#45;COROLLARY</title>
<path fill="none" stroke="black" d="M5689.88,-149.68C5682.64,-147.62 5675.06,-145.62 5667.89,-144 5569.1,-121.71 5542.43,-126.66 5442.89,-108 5433.79,-106.29 5424.13,-104.34 5414.81,-102.37"/>
</g>
<!-- DESCARTES -->
<g id="node47" class="node">
<title>DESCARTES</title>
<ellipse fill="none" stroke="black" cx="7714.89" cy="-90" rx="70.39" ry="18"/>
<text text-anchor="middle" x="7714.89" y="-86.3" font-family="Times,serif" font-size="14.00">DESCARTES</text>
</g>
<!-- PAPPUS&#45;&#45;DESCARTES -->
<g id="edge64" class="edge">
<title>PAPPUS&#45;&#45;DESCARTES</title>
<path fill="none" stroke="black" d="M5760.52,-149.23C5768.13,-147.1 5776.22,-145.18 5783.89,-144 6190.54,-81.59 7226.17,-154.97 7634.89,-108 7644.91,-106.85 7655.52,-105.03 7665.63,-103"/>
</g>
<!-- DIAGNOSIS -->
<g id="node48" class="node">
<title>DIAGNOSIS</title>
<ellipse fill="none" stroke="black" cx="5517.89" cy="-90" rx="66.09" ry="18"/>
<text text-anchor="middle" x="5517.89" y="-86.3" font-family="Times,serif" font-size="14.00">DIAGNOSIS</text>
</g>
<!-- PAPPUS&#45;&#45;DIAGNOSIS -->
<g id="edge65" class="edge">
<title>PAPPUS&#45;&#45;DIAGNOSIS</title>
<path fill="none" stroke="black" d="M5691.08,-149.28C5654.3,-136.91 5596.4,-117.42 5557.8,-104.43"/>
</g>
<!-- LEIBNITZ -->
<g id="node49" class="node">
<title>LEIBNITZ</title>
<ellipse fill="none" stroke="black" cx="7433.89" cy="-90" rx="57.39" ry="18"/>
<text text-anchor="middle" x="7433.89" y="-86.3" font-family="Times,serif" font-size="14.00">LEIBNITZ</text>
</g>
<!-- PAPPUS&#45;&#45;LEIBNITZ -->
<g id="edge66" class="edge">
<title>PAPPUS&#45;&#45;LEIBNITZ</title>
<path fill="none" stroke="black" d="M5760.52,-149.25C5768.14,-147.11 5776.22,-145.19 5783.89,-144 6131.82,-90.02 7019.12,-156.23 7367.89,-108 7376.33,-106.83 7385.24,-104.98 7393.7,-102.91"/>
</g>
<!-- LEMMA -->
<g id="node50" class="node">
<title>LEMMA</title>
<ellipse fill="none" stroke="black" cx="5227.89" cy="-90" rx="48.19" ry="18"/>
<text text-anchor="middle" x="5227.89" y="-86.3" font-family="Times,serif" font-size="14.00">LEMMA</text>
</g>
<!-- PAPPUS&#45;&#45;LEMMA -->
<g id="edge67" class="edge">
<title>PAPPUS&#45;&#45;LEMMA</title>
<path fill="none" stroke="black" d="M5690.57,-149.48C5683.15,-147.39 5675.31,-145.42 5667.89,-144 5499.98,-111.81 5452.73,-140.59 5284.89,-108 5277.59,-106.58 5269.89,-104.62 5262.59,-102.53"/>
</g>
<!-- REDUCTIO AD ABSURDUM AND INDIRECT PROOF -->
<g id="node51" class="node">
<title>REDUCTIO AD ABSURDUM AND INDIRECT PROOF</title>
<ellipse fill="none" stroke="black" cx="6462.89" cy="-90" rx="253.46" ry="18"/>
<text text-anchor="middle" x="6462.89" y="-86.3" font-family="Times,serif" font-size="14.00">REDUCTIO AD ABSURDUM AND INDIRECT PROOF</text>
</g>
<!-- PAPPUS&#45;&#45;REDUCTIO AD ABSURDUM AND INDIRECT PROOF -->
<g id="edge68" class="edge">
<title>PAPPUS&#45;&#45;REDUCTIO AD ABSURDUM AND INDIRECT PROOF</title>
<path fill="none" stroke="black" d="M5761.19,-149.39C5768.62,-147.31 5776.46,-145.36 5783.89,-144 5831.97,-135.18 6101.29,-115.63 6285.94,-102.91"/>
</g>
<!-- ROUTINE PROBLEM -->
<g id="node52" class="node">
<title>ROUTINE PROBLEM</title>
<ellipse fill="none" stroke="black" cx="7249.89" cy="-90" rx="108.58" ry="18"/>
<text text-anchor="middle" x="7249.89" y="-86.3" font-family="Times,serif" font-size="14.00">ROUTINE PROBLEM</text>
</g>
<!-- PAPPUS&#45;&#45;ROUTINE PROBLEM -->
<g id="edge69" class="edge">
<title>PAPPUS&#45;&#45;ROUTINE PROBLEM</title>
<path fill="none" stroke="black" d="M5760.52,-149.27C5768.14,-147.13 5776.22,-145.21 5783.89,-144 6079.92,-97.47 6833.31,-133.41 7131.89,-108 7145.92,-106.81 7160.81,-105.05 7175.13,-103.11"/>
</g>
<!-- TERMS, OLD AND NEW -->
<g id="node53" class="node">
<title>TERMS, OLD AND NEW</title>
<ellipse fill="none" stroke="black" cx="6068.89" cy="-90" rx="122.68" ry="18"/>
<text text-anchor="middle" x="6068.89" y="-86.3" font-family="Times,serif" font-size="14.00">TERMS, OLD AND NEW</text>
</g>
<!-- PAPPUS&#45;&#45;TERMS, OLD AND NEW -->
<g id="edge70" class="edge">
<title>PAPPUS&#45;&#45;TERMS, OLD AND NEW</title>
<path fill="none" stroke="black" d="M5761.94,-149.82C5769.17,-147.75 5776.75,-145.71 5783.89,-144 5852.42,-127.63 5931.23,-113.31 5988.58,-103.7"/>
</g>
<!-- THE FUTURE MATHEMATICIAN -->
<g id="node54" class="node">
<title>THE FUTURE MATHEMATICIAN</title>
<ellipse fill="none" stroke="black" cx="5764.89" cy="-90" rx="163.27" ry="18"/>
<text text-anchor="middle" x="5764.89" y="-86.3" font-family="Times,serif" font-size="14.00">THE FUTURE MATHEMATICIAN</text>
</g>
<!-- PAPPUS&#45;&#45;THE FUTURE MATHEMATICIAN -->
<g id="edge71" class="edge">
<title>PAPPUS&#45;&#45;THE FUTURE MATHEMATICIAN</title>
<path fill="none" stroke="black" d="M5735.33,-144.05C5741.37,-133.21 5749.19,-119.18 5755.27,-108.28"/>
</g>
<!-- THE INTELLIGENT PROBLEM&#45;SOLVER -->
<g id="node55" class="node">
<title>THE INTELLIGENT PROBLEM&#45;SOLVER</title>
<ellipse fill="none" stroke="black" cx="6928.89" cy="-90" rx="194.17" ry="18"/>
<text text-anchor="middle" x="6928.89" y="-86.3" font-family="Times,serif" font-size="14.00">THE INTELLIGENT PROBLEM&#45;SOLVER</text>
</g>
<!-- PAPPUS&#45;&#45;THE INTELLIGENT PROBLEM&#45;SOLVER -->
<g id="edge72" class="edge">
<title>PAPPUS&#45;&#45;THE INTELLIGENT PROBLEM&#45;SOLVER</title>
<path fill="none" stroke="black" d="M5760.53,-149.34C5768.15,-147.2 5776.23,-145.25 5783.89,-144 6196.96,-76.63 6307.13,-133.38 6724.89,-108 6747.51,-106.63 6771.51,-104.88 6794.8,-103.04"/>
</g>
<!-- WHY PROOFS? -->
<g id="node56" class="node">
<title>WHY PROOFS?</title>
<ellipse fill="none" stroke="black" cx="5079.89" cy="-90" rx="81.79" ry="18"/>
<text text-anchor="middle" x="5079.89" y="-86.3" font-family="Times,serif" font-size="14.00">WHY PROOFS?</text>
</g>
<!-- PAPPUS&#45;&#45;WHY PROOFS? -->
<g id="edge73" class="edge">
<title>PAPPUS&#45;&#45;WHY PROOFS?</title>
<path fill="none" stroke="black" d="M5690.91,-149.45C5683.38,-147.33 5675.43,-145.36 5667.89,-144 5449.95,-104.63 5390.53,-136.38 5170.89,-108 5160.21,-106.62 5148.89,-104.8 5137.99,-102.86"/>
</g>
<!-- SPECIALIZATION&#45;&#45;AUXILIARY ELEMENTS -->
<g id="edge74" class="edge">
<title>SPECIALIZATION&#45;&#45;AUXILIARY ELEMENTS</title>
<path fill="none" stroke="black" d="M4107.31,-148.98C4094.92,-147.04 4082.04,-145.25 4069.89,-144 3672.56,-103.09 3570.87,-127.04 3171.89,-108 3106.58,-104.88 3033.47,-100.86 2974.99,-97.5"/>
</g>
<!-- SPECIALIZATION&#45;&#45;GENERALIZATION -->
<g id="edge75" class="edge">
<title>SPECIALIZATION&#45;&#45;GENERALIZATION</title>
<path fill="none" stroke="black" d="M4106.16,-149.25C4094.12,-147.32 4081.65,-145.48 4069.89,-144 3882.24,-120.44 3833.64,-130.72 3645.89,-108 3633.55,-106.51 3620.45,-104.66 3607.8,-102.75"/>
</g>
<!-- BRIGHT IDEA -->
<g id="node57" class="node">
<title>BRIGHT IDEA</title>
<ellipse fill="none" stroke="black" cx="4171.89" cy="-90" rx="75.29" ry="18"/>
<text text-anchor="middle" x="4171.89" y="-86.3" font-family="Times,serif" font-size="14.00">BRIGHT IDEA</text>
</g>
<!-- SPECIALIZATION&#45;&#45;BRIGHT IDEA -->
<g id="edge76" class="edge">
<title>SPECIALIZATION&#45;&#45;BRIGHT IDEA</title>
<path fill="none" stroke="black" d="M4171.89,-143.7C4171.89,-132.85 4171.89,-118.92 4171.89,-108.1"/>
</g>
<!-- DETERMINATION, HOPE, SUCCESS&#45;&#45;ROUTINE PROBLEM -->
<g id="edge77" class="edge">
<title>DETERMINATION, HOPE, SUCCESS&#45;&#45;ROUTINE PROBLEM</title>
<path fill="none" stroke="black" d="M6849.05,-147.11C6926.66,-136.52 7036.02,-121.51 7131.89,-108 7144.6,-106.21 7158.07,-104.29 7171.2,-102.41"/>
</g>
<!-- HEURISTIC&#45;&#45;BOLZANO -->
<g id="edge78" class="edge">
<title>HEURISTIC&#45;&#45;BOLZANO</title>
<path fill="none" stroke="black" d="M7567.89,-143.7C7567.89,-132.85 7567.89,-118.92 7567.89,-108.1"/>
</g>
<!-- HEURISTIC&#45;&#45;DESCARTES -->
<g id="edge79" class="edge">
<title>HEURISTIC&#45;&#45;DESCARTES</title>
<path fill="none" stroke="black" d="M7599.07,-146.15C7623.76,-134.4 7658.12,-118.03 7683,-106.19"/>
</g>
<!-- HEURISTIC&#45;&#45;LEIBNITZ -->
<g id="edge80" class="edge">
<title>HEURISTIC&#45;&#45;LEIBNITZ</title>
<path fill="none" stroke="black" d="M7538.82,-145.81C7516.03,-133.91 7484.52,-117.45 7461.99,-105.68"/>
</g>
<!-- MODERN HEURISTIC -->
<g id="node58" class="node">
<title>MODERN HEURISTIC</title>
<ellipse fill="none" stroke="black" cx="7917.89" cy="-90" rx="114.28" ry="18"/>
<text text-anchor="middle" x="7917.89" y="-86.3" font-family="Times,serif" font-size="14.00">MODERN HEURISTIC</text>
</g>
<!-- HEURISTIC&#45;&#45;MODERN HEURISTIC -->
<g id="edge81" class="edge">
<title>HEURISTIC&#45;&#45;MODERN HEURISTIC</title>
<path fill="none" stroke="black" d="M7619.16,-150.75C7680.3,-138.52 7782.69,-118.04 7850.27,-104.52"/>
</g>
<!-- HEURISTIC REASONING&#45;&#45;ANALOGY -->
<g id="edge82" class="edge">
<title>HEURISTIC REASONING&#45;&#45;ANALOGY</title>
<path fill="none" stroke="black" d="M5193.67,-148.85C5177.16,-146.94 5160.02,-145.2 5143.89,-144 4841.52,-121.44 4080.25,-149.54 3779.89,-108 3771.33,-106.82 3762.29,-104.95 3753.71,-102.89"/>
</g>
<!-- HEURISTIC REASONING&#45;&#45;INDUCTION AND MATHEMATICAL INDUCTION -->
<g id="edge83" class="edge">
<title>HEURISTIC REASONING&#45;&#45;INDUCTION AND MATHEMATICAL INDUCTION</title>
<path fill="none" stroke="black" d="M5190.65,-149.23C5175.06,-147.37 5159.02,-145.55 5143.89,-144 4981.91,-127.35 4796.54,-112.52 4666.59,-102.81"/>
</g>
<!-- HEURISTIC REASONING&#45;&#45;WHY PROOFS? -->
<g id="edge84" class="edge">
<title>HEURISTIC REASONING&#45;&#45;WHY PROOFS?</title>
<path fill="none" stroke="black" d="M5236.05,-145.12C5201.72,-133.22 5155.1,-117.06 5121.76,-105.51"/>
</g>
<!-- RULES OF DISCOVERY&#45;&#45;BRIGHT IDEA -->
<g id="edge85" class="edge">
<title>RULES OF DISCOVERY&#45;&#45;BRIGHT IDEA</title>
<path fill="none" stroke="black" d="M4931.03,-149.04C4916.02,-147.15 4900.51,-145.38 4885.89,-144 4607.12,-117.69 4534.64,-143.54 4256.89,-108 4246.59,-106.68 4235.67,-104.84 4225.21,-102.85"/>
</g>
<!-- SIGNS OF PROGRESS&#45;&#45;ANALOGY -->
<g id="edge86" class="edge">
<title>SIGNS OF PROGRESS&#45;&#45;ANALOGY</title>
<path fill="none" stroke="black" d="M5465.32,-148.85C5450.27,-146.91 5434.62,-145.17 5419.89,-144 5056.5,-115.2 4141.1,-157.14 3779.89,-108 3771.33,-106.84 3762.28,-104.98 3753.7,-102.92"/>
</g>
<!-- SIGNS OF PROGRESS&#45;&#45;LEMMA -->
<g id="edge87" class="edge">
<title>SIGNS OF PROGRESS&#45;&#45;LEMMA</title>
<path fill="none" stroke="black" d="M5471.5,-147.95C5419.34,-138.13 5347.44,-123.69 5284.89,-108 5277.98,-106.27 5270.65,-104.23 5263.64,-102.18"/>
</g>
<!-- CARRYING OUT -->
<g id="node59" class="node">
<title>CARRYING OUT</title>
<ellipse fill="none" stroke="black" cx="8135.89" cy="-90" rx="85.29" ry="18"/>
<text text-anchor="middle" x="8135.89" y="-86.3" font-family="Times,serif" font-size="14.00">CARRYING OUT</text>
</g>
<!-- WISDOM OF PROVERBS&#45;&#45;CARRYING OUT -->
<g id="edge88" class="edge">
<title>WISDOM OF PROVERBS&#45;&#45;CARRYING OUT</title>
<path fill="none" stroke="black" d="M7997.96,-144.94C8027.79,-133.28 8067.89,-117.59 8097.16,-106.15"/>
</g>
<!-- WORKING BACKWARDS&#45;&#45;COULD YOU DERIVE SOMETHING USEFUL FROM THE DATA? -->
<g id="edge89" class="edge">
<title>WORKING BACKWARDS&#45;&#45;COULD YOU DERIVE SOMETHING USEFUL FROM THE DATA?</title>
<path fill="none" stroke="black" d="M4322.6,-148.77C4306.47,-146.84 4289.68,-145.12 4273.89,-144 3713.02,-104.29 2305.85,-127.11 1743.89,-108 1708.75,-106.81 1671.43,-105.15 1635.22,-103.33"/>
</g>
<!-- WORKING BACKWARDS&#45;&#45;ANALOGY -->
<g id="edge90" class="edge">
<title>WORKING BACKWARDS&#45;&#45;ANALOGY</title>
<path fill="none" stroke="black" d="M4319.69,-149.16C4304.44,-147.29 4288.72,-145.49 4273.89,-144 4054.85,-122.04 3997.2,-143.21 3779.89,-108 3771.48,-106.64 3762.58,-104.72 3754.11,-102.67"/>
</g>
<!-- WORKING BACKWARDS&#45;&#45;BRIGHT IDEA -->
<g id="edge91" class="edge">
<title>WORKING BACKWARDS&#45;&#45;BRIGHT IDEA</title>
<path fill="none" stroke="black" d="M4355.03,-145.55C4313.8,-133.27 4256.71,-116.26 4217.28,-104.52"/>
</g>
<!-- HERE IS A PROBLEM RELATED TO YOURS AND SOLVED BEFORE -->
<g id="node60" class="node">
<title>HERE IS A PROBLEM RELATED TO YOURS AND SOLVED BEFORE</title>
<ellipse fill="none" stroke="black" cx="1886.89" cy="-18" rx="324.94" ry="18"/>
<text text-anchor="middle" x="1886.89" y="-14.3" font-family="Times,serif" font-size="14.00">HERE IS A PROBLEM RELATED TO YOURS AND SOLVED BEFORE</text>
</g>
<!-- LOOK AT THE UNKNOWN&#45;&#45;HERE IS A PROBLEM RELATED TO YOURS AND SOLVED BEFORE -->
<g id="edge92" class="edge">
<title>LOOK AT THE UNKNOWN&#45;&#45;HERE IS A PROBLEM RELATED TO YOURS AND SOLVED BEFORE</title>
<path fill="none" stroke="black" d="M1886.89,-71.7C1886.89,-60.85 1886.89,-46.92 1886.89,-36.1"/>
</g>
<!-- PROGRESS AND ACHIEVEMENT&#45;&#45;HERE IS A PROBLEM RELATED TO YOURS AND SOLVED BEFORE -->
<g id="edge93" class="edge">
<title>PROGRESS AND ACHIEVEMENT&#45;&#45;HERE IS A PROBLEM RELATED TO YOURS AND SOLVED BEFORE</title>
<path fill="none" stroke="black" d="M2209.56,-74.5C2143.09,-63.06 2050.42,-47.12 1981.43,-35.26"/>
</g>
<!-- HAVE YOU SEEN IT BEFORE? -->
<g id="node61" class="node">
<title>HAVE YOU SEEN IT BEFORE?</title>
<ellipse fill="none" stroke="black" cx="2382.89" cy="-18" rx="153.27" ry="18"/>
<text text-anchor="middle" x="2382.89" y="-14.3" font-family="Times,serif" font-size="14.00">HAVE YOU SEEN IT BEFORE?</text>
</g>
<!-- PROGRESS AND ACHIEVEMENT&#45;&#45;HAVE YOU SEEN IT BEFORE? -->
<g id="edge94" class="edge">
<title>PROGRESS AND ACHIEVEMENT&#45;&#45;HAVE YOU SEEN IT BEFORE?</title>
<path fill="none" stroke="black" d="M2315.44,-72.05C2329.33,-61.13 2347.33,-46.97 2361.24,-36.03"/>
</g>
<!-- CAN YOU DERIVE THE RESULT DIFFERENTLY? -->
<g id="node62" class="node">
<title>CAN YOU DERIVE THE RESULT DIFFERENTLY?</title>
<ellipse fill="none" stroke="black" cx="6113.89" cy="-18" rx="237.76" ry="18"/>
<text text-anchor="middle" x="6113.89" y="-14.3" font-family="Times,serif" font-size="14.00">CAN YOU DERIVE THE RESULT DIFFERENTLY?</text>
</g>
<!-- REDUCTIO AD ABSURDUM AND INDIRECT PROOF&#45;&#45;CAN YOU DERIVE THE RESULT DIFFERENTLY? -->
<g id="edge95" class="edge">
<title>REDUCTIO AD ABSURDUM AND INDIRECT PROOF&#45;&#45;CAN YOU DERIVE THE RESULT DIFFERENTLY?</title>
<path fill="none" stroke="black" d="M6382.39,-72.85C6325.72,-61.49 6250.2,-46.34 6193.69,-35.01"/>
</g>
<!-- THE FUTURE MATHEMATICIAN&#45;&#45;CAN YOU DERIVE THE RESULT DIFFERENTLY? -->
<g id="edge96" class="edge">
<title>THE FUTURE MATHEMATICIAN&#45;&#45;CAN YOU DERIVE THE RESULT DIFFERENTLY?</title>
<path fill="none" stroke="black" d="M5839.76,-73.98C5897.04,-62.49 5975.87,-46.68 6034.29,-34.97"/>
</g>
</g>
</svg>
