<?xml version="1.0" encoding="UTF-8" standalone="no"?>
<!DOCTYPE svg PUBLIC "-//W3C//DTD SVG 1.1//EN"
 "http://www.w3.org/Graphics/SVG/1.1/DTD/svg11.dtd">
<!-- Generated by graphviz version 2.43.0 (0)
 -->
<!-- Pages: 1 -->
<svg width="7309pt" height="404pt"
 viewBox="0.00 0.00 7308.63 404.00" xmlns="http://www.w3.org/2000/svg" xmlns:xlink="http://www.w3.org/1999/xlink">
<g id="graph0" class="graph" transform="scale(1 1) rotate(0) translate(4 400)">
<polygon fill="white" stroke="transparent" points="-4,4 -4,-400 7304.63,-400 7304.63,4 -4,4"/>
<!-- Understanding The Problem -->
<g id="node1" class="node">
<title>Understanding The Problem</title>
<ellipse fill="none" stroke="black" cx="2425.49" cy="-378" rx="142.17" ry="18"/>
<text text-anchor="middle" x="2425.49" y="-374.3" font-family="Times,serif" font-size="14.00">Understanding The Problem</text>
</g>
<!-- WHAT IS THE UNKNOWN? -->
<g id="node2" class="node">
<title>WHAT IS THE UNKNOWN?</title>
<ellipse fill="none" stroke="black" cx="1781.49" cy="-306" rx="137.58" ry="18"/>
<text text-anchor="middle" x="1781.49" y="-302.3" font-family="Times,serif" font-size="14.00">WHAT IS THE UNKNOWN?</text>
</g>
<!-- Understanding The Problem&#45;&#45;WHAT IS THE UNKNOWN? -->
<g id="edge1" class="edge">
<title>Understanding The Problem&#45;&#45;WHAT IS THE UNKNOWN?</title>
<path fill="none" stroke="black" d="M2319.3,-365.95C2218.65,-355.42 2063.24,-338.98 1928.49,-324 1912.91,-322.27 1896.41,-320.4 1880.31,-318.55"/>
</g>
<!-- IS IT POSSIBLE TO SATISFY THE CONDITION? -->
<g id="node3" class="node">
<title>IS IT POSSIBLE TO SATISFY THE CONDITION?</title>
<ellipse fill="none" stroke="black" cx="2168.49" cy="-306" rx="231.26" ry="18"/>
<text text-anchor="middle" x="2168.49" y="-302.3" font-family="Times,serif" font-size="14.00">IS IT POSSIBLE TO SATISFY THE CONDITION?</text>
</g>
<!-- Understanding The Problem&#45;&#45;IS IT POSSIBLE TO SATISFY THE CONDITION? -->
<g id="edge2" class="edge">
<title>Understanding The Problem&#45;&#45;IS IT POSSIBLE TO SATISFY THE CONDITION?</title>
<path fill="none" stroke="black" d="M2368.45,-361.46C2327.04,-350.19 2271.12,-334.96 2228.94,-323.47"/>
</g>
<!-- DRAW A FIGURE -->
<g id="node4" class="node">
<title>DRAW A FIGURE</title>
<ellipse fill="none" stroke="black" cx="3205.49" cy="-306" rx="90.98" ry="18"/>
<text text-anchor="middle" x="3205.49" y="-302.3" font-family="Times,serif" font-size="14.00">DRAW A FIGURE</text>
</g>
<!-- Understanding The Problem&#45;&#45;DRAW A FIGURE -->
<g id="edge3" class="edge">
<title>Understanding The Problem&#45;&#45;DRAW A FIGURE</title>
<path fill="none" stroke="black" d="M2538.07,-366.9C2697.33,-352.6 2984.57,-326.83 3124.48,-314.27"/>
</g>
<!-- SEPARATE THE VARIOUS PARTS OF THE CONDITION -->
<g id="node5" class="node">
<title>SEPARATE THE VARIOUS PARTS OF THE CONDITION</title>
<ellipse fill="none" stroke="black" cx="2682.49" cy="-306" rx="264.55" ry="18"/>
<text text-anchor="middle" x="2682.49" y="-302.3" font-family="Times,serif" font-size="14.00">SEPARATE THE VARIOUS PARTS OF THE CONDITION</text>
</g>
<!-- Understanding The Problem&#45;&#45;SEPARATE THE VARIOUS PARTS OF THE CONDITION -->
<g id="edge4" class="edge">
<title>Understanding The Problem&#45;&#45;SEPARATE THE VARIOUS PARTS OF THE CONDITION</title>
<path fill="none" stroke="black" d="M2482.52,-361.46C2523.78,-350.23 2579.45,-335.06 2621.58,-323.59"/>
</g>
<!-- CONDITION -->
<g id="node6" class="node">
<title>CONDITION</title>
<ellipse fill="none" stroke="black" cx="1820.49" cy="-234" rx="67.69" ry="18"/>
<text text-anchor="middle" x="1820.49" y="-230.3" font-family="Times,serif" font-size="14.00">CONDITION</text>
</g>
<!-- WHAT IS THE UNKNOWN?&#45;&#45;CONDITION -->
<g id="edge5" class="edge">
<title>WHAT IS THE UNKNOWN?&#45;&#45;CONDITION</title>
<path fill="none" stroke="black" d="M1791.13,-287.7C1797.17,-276.85 1804.93,-262.92 1810.96,-252.1"/>
</g>
<!-- PRACTICAL PROBLEMS -->
<g id="node7" class="node">
<title>PRACTICAL PROBLEMS</title>
<ellipse fill="none" stroke="black" cx="1441.49" cy="-234" rx="124.28" ry="18"/>
<text text-anchor="middle" x="1441.49" y="-230.3" font-family="Times,serif" font-size="14.00">PRACTICAL PROBLEMS</text>
</g>
<!-- WHAT IS THE UNKNOWN?&#45;&#45;PRACTICAL PROBLEMS -->
<g id="edge6" class="edge">
<title>WHAT IS THE UNKNOWN?&#45;&#45;PRACTICAL PROBLEMS</title>
<path fill="none" stroke="black" d="M1711.04,-290.5C1652.01,-278.34 1568.24,-261.1 1509.81,-249.07"/>
</g>
<!-- PUZZLES -->
<g id="node8" class="node">
<title>PUZZLES</title>
<ellipse fill="none" stroke="black" cx="1999.49" cy="-234" rx="55.79" ry="18"/>
<text text-anchor="middle" x="1999.49" y="-230.3" font-family="Times,serif" font-size="14.00">PUZZLES</text>
</g>
<!-- WHAT IS THE UNKNOWN?&#45;&#45;PUZZLES -->
<g id="edge7" class="edge">
<title>WHAT IS THE UNKNOWN?&#45;&#45;PUZZLES</title>
<path fill="none" stroke="black" d="M1830.95,-289.12C1870.53,-276.41 1925.2,-258.85 1961.41,-247.23"/>
</g>
<!-- SETTING UP EQUATIONS -->
<g id="node9" class="node">
<title>SETTING UP EQUATIONS</title>
<ellipse fill="none" stroke="black" cx="1166.49" cy="-234" rx="132.68" ry="18"/>
<text text-anchor="middle" x="1166.49" y="-230.3" font-family="Times,serif" font-size="14.00">SETTING UP EQUATIONS</text>
</g>
<!-- WHAT IS THE UNKNOWN?&#45;&#45;SETTING UP EQUATIONS -->
<g id="edge8" class="edge">
<title>WHAT IS THE UNKNOWN?&#45;&#45;SETTING UP EQUATIONS</title>
<path fill="none" stroke="black" d="M1679.51,-293.8C1583.69,-283.22 1436.33,-266.81 1308.49,-252 1293.44,-250.26 1277.5,-248.38 1261.95,-246.53"/>
</g>
<!-- IS IT POSSIBLE TO SATISFY THE CONDITION?&#45;&#45;CONDITION -->
<g id="edge9" class="edge">
<title>IS IT POSSIBLE TO SATISFY THE CONDITION?&#45;&#45;CONDITION</title>
<path fill="none" stroke="black" d="M2089.08,-289.03C2022.79,-275.69 1930.16,-257.06 1872.82,-245.53"/>
</g>
<!-- CONTRADICTORY -->
<g id="node10" class="node">
<title>CONTRADICTORY</title>
<ellipse fill="none" stroke="black" cx="2168.49" cy="-234" rx="94.78" ry="18"/>
<text text-anchor="middle" x="2168.49" y="-230.3" font-family="Times,serif" font-size="14.00">CONTRADICTORY</text>
</g>
<!-- IS IT POSSIBLE TO SATISFY THE CONDITION?&#45;&#45;CONTRADICTORY -->
<g id="edge10" class="edge">
<title>IS IT POSSIBLE TO SATISFY THE CONDITION?&#45;&#45;CONTRADICTORY</title>
<path fill="none" stroke="black" d="M2168.49,-287.7C2168.49,-276.85 2168.49,-262.92 2168.49,-252.1"/>
</g>
<!-- REDUNDANT -->
<g id="node11" class="node">
<title>REDUNDANT</title>
<ellipse fill="none" stroke="black" cx="2356.49" cy="-234" rx="74.99" ry="18"/>
<text text-anchor="middle" x="2356.49" y="-230.3" font-family="Times,serif" font-size="14.00">REDUNDANT</text>
</g>
<!-- IS IT POSSIBLE TO SATISFY THE CONDITION?&#45;&#45;REDUNDANT -->
<g id="edge11" class="edge">
<title>IS IT POSSIBLE TO SATISFY THE CONDITION?&#45;&#45;REDUNDANT</title>
<path fill="none" stroke="black" d="M2213.52,-288.23C2245.24,-276.42 2287.28,-260.77 2317.55,-249.5"/>
</g>
<!-- FIGURES -->
<g id="node12" class="node">
<title>FIGURES</title>
<ellipse fill="none" stroke="black" cx="3205.49" cy="-234" rx="55.79" ry="18"/>
<text text-anchor="middle" x="3205.49" y="-230.3" font-family="Times,serif" font-size="14.00">FIGURES</text>
</g>
<!-- DRAW A FIGURE&#45;&#45;FIGURES -->
<g id="edge12" class="edge">
<title>DRAW A FIGURE&#45;&#45;FIGURES</title>
<path fill="none" stroke="black" d="M3205.49,-287.7C3205.49,-276.85 3205.49,-262.92 3205.49,-252.1"/>
</g>
<!-- NOTATION -->
<g id="node13" class="node">
<title>NOTATION</title>
<ellipse fill="none" stroke="black" cx="4577.49" cy="-234" rx="61.99" ry="18"/>
<text text-anchor="middle" x="4577.49" y="-230.3" font-family="Times,serif" font-size="14.00">NOTATION</text>
</g>
<!-- DRAW A FIGURE&#45;&#45;NOTATION -->
<g id="edge13" class="edge">
<title>DRAW A FIGURE&#45;&#45;NOTATION</title>
<path fill="none" stroke="black" d="M3292.35,-300.57C3548.88,-287.48 4298.8,-249.22 4517.17,-238.08"/>
</g>
<!-- SEPARATE THE VARIOUS PARTS OF THE CONDITION&#45;&#45;CONDITION -->
<g id="edge14" class="edge">
<title>SEPARATE THE VARIOUS PARTS OF THE CONDITION&#45;&#45;CONDITION</title>
<path fill="none" stroke="black" d="M2494.25,-293.33C2308.91,-281.54 2038.9,-263.47 1934.49,-252 1915.49,-249.91 1894.8,-247.02 1876.33,-244.21"/>
</g>
<!-- DECOMPOSING AND RECOMBINING -->
<g id="node14" class="node">
<title>DECOMPOSING AND RECOMBINING</title>
<ellipse fill="none" stroke="black" cx="2682.49" cy="-234" rx="187.67" ry="18"/>
<text text-anchor="middle" x="2682.49" y="-230.3" font-family="Times,serif" font-size="14.00">DECOMPOSING AND RECOMBINING</text>
</g>
<!-- SEPARATE THE VARIOUS PARTS OF THE CONDITION&#45;&#45;DECOMPOSING AND RECOMBINING -->
<g id="edge15" class="edge">
<title>SEPARATE THE VARIOUS PARTS OF THE CONDITION&#45;&#45;DECOMPOSING AND RECOMBINING</title>
<path fill="none" stroke="black" d="M2682.49,-287.7C2682.49,-276.85 2682.49,-262.92 2682.49,-252.1"/>
</g>
<!-- PROBLEMS TO FIND, PROBLEMS TO PROVE -->
<g id="node15" class="node">
<title>PROBLEMS TO FIND, PROBLEMS TO PROVE</title>
<ellipse fill="none" stroke="black" cx="461.49" cy="-162" rx="223.66" ry="18"/>
<text text-anchor="middle" x="461.49" y="-158.3" font-family="Times,serif" font-size="14.00">PROBLEMS TO FIND, PROBLEMS TO PROVE</text>
</g>
<!-- CONDITION&#45;&#45;PROBLEMS TO FIND, PROBLEMS TO PROVE -->
<g id="edge16" class="edge">
<title>CONDITION&#45;&#45;PROBLEMS TO FIND, PROBLEMS TO PROVE</title>
<path fill="none" stroke="black" d="M1756.55,-228.09C1706.91,-224.39 1636.36,-219.4 1574.49,-216 1183.64,-194.5 1085.29,-202.24 694.49,-180 669.28,-178.57 642.55,-176.82 616.54,-175.01"/>
</g>
<!-- DID YOU USE ALL THE DATA? -->
<g id="node16" class="node">
<title>DID YOU USE ALL THE DATA?</title>
<ellipse fill="none" stroke="black" cx="1422.49" cy="-162" rx="153.27" ry="18"/>
<text text-anchor="middle" x="1422.49" y="-158.3" font-family="Times,serif" font-size="14.00">DID YOU USE ALL THE DATA?</text>
</g>
<!-- PRACTICAL PROBLEMS&#45;&#45;DID YOU USE ALL THE DATA? -->
<g id="edge17" class="edge">
<title>PRACTICAL PROBLEMS&#45;&#45;DID YOU USE ALL THE DATA?</title>
<path fill="none" stroke="black" d="M1436.79,-215.7C1433.85,-204.85 1430.06,-190.92 1427.13,-180.1"/>
</g>
<!-- DO YOU KNOW A RELATED PROBLEM? -->
<g id="node17" class="node">
<title>DO YOU KNOW A RELATED PROBLEM?</title>
<ellipse fill="none" stroke="black" cx="901.49" cy="-162" rx="198.47" ry="18"/>
<text text-anchor="middle" x="901.49" y="-158.3" font-family="Times,serif" font-size="14.00">DO YOU KNOW A RELATED PROBLEM?</text>
</g>
<!-- PRACTICAL PROBLEMS&#45;&#45;DO YOU KNOW A RELATED PROBLEM? -->
<g id="edge18" class="edge">
<title>PRACTICAL PROBLEMS&#45;&#45;DO YOU KNOW A RELATED PROBLEM?</title>
<path fill="none" stroke="black" d="M1352.32,-221.44C1258.55,-209.29 1110.95,-190.15 1010.37,-177.11"/>
</g>
<!-- AUXILIARY PROBLEM -->
<g id="node18" class="node">
<title>AUXILIARY PROBLEM</title>
<ellipse fill="none" stroke="black" cx="2448.49" cy="-162" rx="114.28" ry="18"/>
<text text-anchor="middle" x="2448.49" y="-158.3" font-family="Times,serif" font-size="14.00">AUXILIARY PROBLEM</text>
</g>
<!-- PUZZLES&#45;&#45;AUXILIARY PROBLEM -->
<g id="edge19" class="edge">
<title>PUZZLES&#45;&#45;AUXILIARY PROBLEM</title>
<path fill="none" stroke="black" d="M2040.23,-221.55C2048.23,-219.53 2056.59,-217.57 2064.49,-216 2068.17,-215.27 2253.41,-189.79 2365.23,-174.43"/>
</g>
<!-- COULD YOU RESTATE THE PROBLEM? -->
<g id="node19" class="node">
<title>COULD YOU RESTATE THE PROBLEM?</title>
<ellipse fill="none" stroke="black" cx="1790.49" cy="-162" rx="196.87" ry="18"/>
<text text-anchor="middle" x="1790.49" y="-158.3" font-family="Times,serif" font-size="14.00">COULD YOU RESTATE THE PROBLEM?</text>
</g>
<!-- PUZZLES&#45;&#45;COULD YOU RESTATE THE PROBLEM? -->
<g id="edge20" class="edge">
<title>PUZZLES&#45;&#45;COULD YOU RESTATE THE PROBLEM?</title>
<path fill="none" stroke="black" d="M1962.12,-220.49C1927.95,-209.04 1877.18,-192.04 1839.72,-179.49"/>
</g>
<!-- IF YOU CANNOT SOLVE THE PROPOSED PROBLEM -->
<g id="node20" class="node">
<title>IF YOU CANNOT SOLVE THE PROPOSED PROBLEM</title>
<ellipse fill="none" stroke="black" cx="2837.49" cy="-162" rx="256.95" ry="18"/>
<text text-anchor="middle" x="2837.49" y="-158.3" font-family="Times,serif" font-size="14.00">IF YOU CANNOT SOLVE THE PROPOSED PROBLEM</text>
</g>
<!-- PUZZLES&#45;&#45;IF YOU CANNOT SOLVE THE PROPOSED PROBLEM -->
<g id="edge21" class="edge">
<title>PUZZLES&#45;&#45;IF YOU CANNOT SOLVE THE PROPOSED PROBLEM</title>
<path fill="none" stroke="black" d="M2039.46,-221.29C2047.67,-219.24 2056.31,-217.34 2064.49,-216 2093.15,-211.31 2435.13,-188.82 2654.51,-174.68"/>
</g>
<!-- VARIATION OF THE PROBLEM -->
<g id="node21" class="node">
<title>VARIATION OF THE PROBLEM</title>
<ellipse fill="none" stroke="black" cx="2160.49" cy="-162" rx="155.17" ry="18"/>
<text text-anchor="middle" x="2160.49" y="-158.3" font-family="Times,serif" font-size="14.00">VARIATION OF THE PROBLEM</text>
</g>
<!-- PUZZLES&#45;&#45;VARIATION OF THE PROBLEM -->
<g id="edge22" class="edge">
<title>PUZZLES&#45;&#45;VARIATION OF THE PROBLEM</title>
<path fill="none" stroke="black" d="M2031.3,-219.17C2057.5,-207.77 2094.74,-191.58 2122.51,-179.51"/>
</g>
<!-- DEFINITION -->
<g id="node22" class="node">
<title>DEFINITION</title>
<ellipse fill="none" stroke="black" cx="149.49" cy="-162" rx="70.39" ry="18"/>
<text text-anchor="middle" x="149.49" y="-158.3" font-family="Times,serif" font-size="14.00">DEFINITION</text>
</g>
<!-- SETTING UP EQUATIONS&#45;&#45;DEFINITION -->
<g id="edge23" class="edge">
<title>SETTING UP EQUATIONS&#45;&#45;DEFINITION</title>
<path fill="none" stroke="black" d="M1034.61,-232C852.51,-229.15 514.19,-218.57 228.49,-180 218.89,-178.7 208.73,-176.87 199.01,-174.89"/>
</g>
<!-- SYMMETRY -->
<g id="node23" class="node">
<title>SYMMETRY</title>
<ellipse fill="none" stroke="black" cx="1184.49" cy="-162" rx="66.09" ry="18"/>
<text text-anchor="middle" x="1184.49" y="-158.3" font-family="Times,serif" font-size="14.00">SYMMETRY</text>
</g>
<!-- SETTING UP EQUATIONS&#45;&#45;SYMMETRY -->
<g id="edge24" class="edge">
<title>SETTING UP EQUATIONS&#45;&#45;SYMMETRY</title>
<path fill="none" stroke="black" d="M1170.94,-215.7C1173.73,-204.85 1177.31,-190.92 1180.09,-180.1"/>
</g>
<!-- FIGURES&#45;&#45;IF YOU CANNOT SOLVE THE PROPOSED PROBLEM -->
<g id="edge25" class="edge">
<title>FIGURES&#45;&#45;IF YOU CANNOT SOLVE THE PROPOSED PROBLEM</title>
<path fill="none" stroke="black" d="M3158.51,-224.06C3098.92,-212.73 2995.12,-192.98 2921.7,-179.02"/>
</g>
<!-- FIGURES&#45;&#45;SYMMETRY -->
<g id="edge26" class="edge">
<title>FIGURES&#45;&#45;SYMMETRY</title>
<path fill="none" stroke="black" d="M3151,-229.66C3086.29,-225.81 2975.06,-219.55 2879.49,-216 2519.87,-202.63 1617.72,-223.49 1260.49,-180 1250.82,-178.82 1240.58,-176.96 1230.86,-174.9"/>
</g>
<!-- CAN YOU CHECK THE RESULT? -->
<g id="node24" class="node">
<title>CAN YOU CHECK THE RESULT?</title>
<ellipse fill="none" stroke="black" cx="3746.49" cy="-162" rx="163.57" ry="18"/>
<text text-anchor="middle" x="3746.49" y="-158.3" font-family="Times,serif" font-size="14.00">CAN YOU CHECK THE RESULT?</text>
</g>
<!-- FIGURES&#45;&#45;CAN YOU CHECK THE RESULT? -->
<g id="edge27" class="edge">
<title>FIGURES&#45;&#45;CAN YOU CHECK THE RESULT?</title>
<path fill="none" stroke="black" d="M3256.38,-226.41C3345.03,-214.95 3529.31,-191.1 3644.92,-176.14"/>
</g>
<!-- PAPPUS -->
<g id="node25" class="node">
<title>PAPPUS</title>
<ellipse fill="none" stroke="black" cx="4801.49" cy="-162" rx="48.99" ry="18"/>
<text text-anchor="middle" x="4801.49" y="-158.3" font-family="Times,serif" font-size="14.00">PAPPUS</text>
</g>
<!-- FIGURES&#45;&#45;PAPPUS -->
<g id="edge28" class="edge">
<title>FIGURES&#45;&#45;PAPPUS</title>
<path fill="none" stroke="black" d="M3261.26,-232.02C3497.16,-227.71 4414.03,-209.39 4701.49,-180 4720.76,-178.03 4741.93,-174.61 4759.81,-171.36"/>
</g>
<!-- SPECIALIZATION -->
<g id="node26" class="node">
<title>SPECIALIZATION</title>
<ellipse fill="none" stroke="black" cx="3205.49" cy="-162" rx="92.88" ry="18"/>
<text text-anchor="middle" x="3205.49" y="-158.3" font-family="Times,serif" font-size="14.00">SPECIALIZATION</text>
</g>
<!-- FIGURES&#45;&#45;SPECIALIZATION -->
<g id="edge29" class="edge">
<title>FIGURES&#45;&#45;SPECIALIZATION</title>
<path fill="none" stroke="black" d="M3205.49,-215.7C3205.49,-204.85 3205.49,-190.92 3205.49,-180.1"/>
</g>
<!-- DETERMINATION, HOPE, SUCCESS -->
<g id="node27" class="node">
<title>DETERMINATION, HOPE, SUCCESS</title>
<ellipse fill="none" stroke="black" cx="6717.49" cy="-162" rx="181.17" ry="18"/>
<text text-anchor="middle" x="6717.49" y="-158.3" font-family="Times,serif" font-size="14.00">DETERMINATION, HOPE, SUCCESS</text>
</g>
<!-- NOTATION&#45;&#45;DETERMINATION, HOPE, SUCCESS -->
<g id="edge30" class="edge">
<title>NOTATION&#45;&#45;DETERMINATION, HOPE, SUCCESS</title>
<path fill="none" stroke="black" d="M4639.02,-232.34C4877.27,-229.56 5761.95,-217.19 6489.49,-180 6519.71,-178.46 6552.16,-176.32 6582.83,-174.09"/>
</g>
<!-- EXAMINE YOUR GUESS -->
<g id="node28" class="node">
<title>EXAMINE YOUR GUESS</title>
<ellipse fill="none" stroke="black" cx="4993.49" cy="-162" rx="125.38" ry="18"/>
<text text-anchor="middle" x="4993.49" y="-158.3" font-family="Times,serif" font-size="14.00">EXAMINE YOUR GUESS</text>
</g>
<!-- NOTATION&#45;&#45;EXAMINE YOUR GUESS -->
<g id="edge31" class="edge">
<title>NOTATION&#45;&#45;EXAMINE YOUR GUESS</title>
<path fill="none" stroke="black" d="M4629.75,-224.21C4701.77,-212.09 4832.05,-190.16 4915.58,-176.11"/>
</g>
<!-- HEURISTIC -->
<g id="node29" class="node">
<title>HEURISTIC</title>
<ellipse fill="none" stroke="black" cx="6414.49" cy="-162" rx="65.79" ry="18"/>
<text text-anchor="middle" x="6414.49" y="-158.3" font-family="Times,serif" font-size="14.00">HEURISTIC</text>
</g>
<!-- NOTATION&#45;&#45;HEURISTIC -->
<g id="edge32" class="edge">
<title>NOTATION&#45;&#45;HEURISTIC</title>
<path fill="none" stroke="black" d="M4638.35,-230.68C4916.31,-220.09 6063.96,-176.36 6349.79,-165.47"/>
</g>
<!-- HEURISTIC REASONING -->
<g id="node30" class="node">
<title>HEURISTIC REASONING</title>
<ellipse fill="none" stroke="black" cx="4315.49" cy="-162" rx="128.88" ry="18"/>
<text text-anchor="middle" x="4315.49" y="-158.3" font-family="Times,serif" font-size="14.00">HEURISTIC REASONING</text>
</g>
<!-- NOTATION&#45;&#45;HEURISTIC REASONING -->
<g id="edge33" class="edge">
<title>NOTATION&#45;&#45;HEURISTIC REASONING</title>
<path fill="none" stroke="black" d="M4533.63,-221.28C4489.35,-209.45 4420.75,-191.12 4372.32,-178.18"/>
</g>
<!-- RULES OF DISCOVERY -->
<g id="node31" class="node">
<title>RULES OF DISCOVERY</title>
<ellipse fill="none" stroke="black" cx="4048.49" cy="-162" rx="120.48" ry="18"/>
<text text-anchor="middle" x="4048.49" y="-158.3" font-family="Times,serif" font-size="14.00">RULES OF DISCOVERY</text>
</g>
<!-- NOTATION&#45;&#45;RULES OF DISCOVERY -->
<g id="edge34" class="edge">
<title>NOTATION&#45;&#45;RULES OF DISCOVERY</title>
<path fill="none" stroke="black" d="M4522.37,-225.71C4430.41,-213.54 4244.99,-189 4135.33,-174.49"/>
</g>
<!-- SIGNS OF PROGRESS -->
<g id="node32" class="node">
<title>SIGNS OF PROGRESS</title>
<ellipse fill="none" stroke="black" cx="4577.49" cy="-162" rx="115.08" ry="18"/>
<text text-anchor="middle" x="4577.49" y="-158.3" font-family="Times,serif" font-size="14.00">SIGNS OF PROGRESS</text>
</g>
<!-- NOTATION&#45;&#45;SIGNS OF PROGRESS -->
<g id="edge35" class="edge">
<title>NOTATION&#45;&#45;SIGNS OF PROGRESS</title>
<path fill="none" stroke="black" d="M4577.49,-215.7C4577.49,-204.85 4577.49,-190.92 4577.49,-180.1"/>
</g>
<!-- WISDOM OF PROVERBS -->
<g id="node33" class="node">
<title>WISDOM OF PROVERBS</title>
<ellipse fill="none" stroke="black" cx="7129.49" cy="-162" rx="126.98" ry="18"/>
<text text-anchor="middle" x="7129.49" y="-158.3" font-family="Times,serif" font-size="14.00">WISDOM OF PROVERBS</text>
</g>
<!-- NOTATION&#45;&#45;WISDOM OF PROVERBS -->
<g id="edge36" class="edge">
<title>NOTATION&#45;&#45;WISDOM OF PROVERBS</title>
<path fill="none" stroke="black" d="M4639.18,-232.81C4908.37,-231.74 6006.8,-224.7 6907.49,-180 6945.8,-178.1 6987.78,-175.12 7024.82,-172.18"/>
</g>
<!-- WORKING BACKWARDS -->
<g id="node34" class="node">
<title>WORKING BACKWARDS</title>
<ellipse fill="none" stroke="black" cx="3440.49" cy="-162" rx="124.28" ry="18"/>
<text text-anchor="middle" x="3440.49" y="-158.3" font-family="Times,serif" font-size="14.00">WORKING BACKWARDS</text>
</g>
<!-- NOTATION&#45;&#45;WORKING BACKWARDS -->
<g id="edge37" class="edge">
<title>NOTATION&#45;&#45;WORKING BACKWARDS</title>
<path fill="none" stroke="black" d="M4516.25,-231.35C4359.3,-226.79 3929.86,-212.14 3573.49,-180 3558.42,-178.64 3542.43,-176.88 3526.95,-175"/>
</g>
<!-- COULD YOU DERIVE SOMETHING USEFUL FROM THE DATA? -->
<g id="node35" class="node">
<title>COULD YOU DERIVE SOMETHING USEFUL FROM THE DATA?</title>
<ellipse fill="none" stroke="black" cx="920.49" cy="-90" rx="307.35" ry="18"/>
<text text-anchor="middle" x="920.49" y="-86.3" font-family="Times,serif" font-size="14.00">COULD YOU DERIVE SOMETHING USEFUL FROM THE DATA?</text>
</g>
<!-- PROBLEMS TO FIND, PROBLEMS TO PROVE&#45;&#45;COULD YOU DERIVE SOMETHING USEFUL FROM THE DATA? -->
<g id="edge38" class="edge">
<title>PROBLEMS TO FIND, PROBLEMS TO PROVE&#45;&#45;COULD YOU DERIVE SOMETHING USEFUL FROM THE DATA?</title>
<path fill="none" stroke="black" d="M560.8,-145.85C636.06,-134.38 739.23,-118.64 815.78,-106.97"/>
</g>
<!-- LOOK AT THE UNKNOWN -->
<g id="node36" class="node">
<title>LOOK AT THE UNKNOWN</title>
<ellipse fill="none" stroke="black" cx="461.49" cy="-90" rx="133.78" ry="18"/>
<text text-anchor="middle" x="461.49" y="-86.3" font-family="Times,serif" font-size="14.00">LOOK AT THE UNKNOWN</text>
</g>
<!-- PROBLEMS TO FIND, PROBLEMS TO PROVE&#45;&#45;LOOK AT THE UNKNOWN -->
<g id="edge39" class="edge">
<title>PROBLEMS TO FIND, PROBLEMS TO PROVE&#45;&#45;LOOK AT THE UNKNOWN</title>
<path fill="none" stroke="black" d="M461.49,-143.7C461.49,-132.85 461.49,-118.92 461.49,-108.1"/>
</g>
<!-- AUXILIARY ELEMENTS -->
<g id="node37" class="node">
<title>AUXILIARY ELEMENTS</title>
<ellipse fill="none" stroke="black" cx="1941.49" cy="-90" rx="120.78" ry="18"/>
<text text-anchor="middle" x="1941.49" y="-86.3" font-family="Times,serif" font-size="14.00">AUXILIARY ELEMENTS</text>
</g>
<!-- DID YOU USE ALL THE DATA?&#45;&#45;AUXILIARY ELEMENTS -->
<g id="edge40" class="edge">
<title>DID YOU USE ALL THE DATA?&#45;&#45;AUXILIARY ELEMENTS</title>
<path fill="none" stroke="black" d="M1518.89,-148C1615.34,-134.99 1762.33,-115.16 1855.08,-102.65"/>
</g>
<!-- PROGRESS AND ACHIEVEMENT -->
<g id="node38" class="node">
<title>PROGRESS AND ACHIEVEMENT</title>
<ellipse fill="none" stroke="black" cx="1411.49" cy="-90" rx="165.97" ry="18"/>
<text text-anchor="middle" x="1411.49" y="-86.3" font-family="Times,serif" font-size="14.00">PROGRESS AND ACHIEVEMENT</text>
</g>
<!-- DID YOU USE ALL THE DATA?&#45;&#45;PROGRESS AND ACHIEVEMENT -->
<g id="edge41" class="edge">
<title>DID YOU USE ALL THE DATA?&#45;&#45;PROGRESS AND ACHIEVEMENT</title>
<path fill="none" stroke="black" d="M1419.77,-143.7C1418.06,-132.85 1415.87,-118.92 1414.17,-108.1"/>
</g>
<!-- THE INTELLIGENT READER -->
<g id="node39" class="node">
<title>THE INTELLIGENT READER</title>
<ellipse fill="none" stroke="black" cx="3183.49" cy="-90" rx="144.87" ry="18"/>
<text text-anchor="middle" x="3183.49" y="-86.3" font-family="Times,serif" font-size="14.00">THE INTELLIGENT READER</text>
</g>
<!-- DID YOU USE ALL THE DATA?&#45;&#45;THE INTELLIGENT READER -->
<g id="edge42" class="edge">
<title>DID YOU USE ALL THE DATA?&#45;&#45;THE INTELLIGENT READER</title>
<path fill="none" stroke="black" d="M1526.96,-148.8C1546.07,-146.92 1565.86,-145.21 1584.49,-144 2225.56,-102.44 2388.53,-151.28 3029.49,-108 3047.33,-106.79 3066.3,-105.07 3084.6,-103.17"/>
</g>
<!-- DO YOU KNOW A RELATED PROBLEM?&#45;&#45;LOOK AT THE UNKNOWN -->
<g id="edge43" class="edge">
<title>DO YOU KNOW A RELATED PROBLEM?&#45;&#45;LOOK AT THE UNKNOWN</title>
<path fill="none" stroke="black" d="M807.9,-146.11C729.81,-133.69 619.55,-116.15 544.54,-104.21"/>
</g>
<!-- DO YOU KNOW A RELATED PROBLEM?&#45;&#45;PROGRESS AND ACHIEVEMENT -->
<g id="edge44" class="edge">
<title>DO YOU KNOW A RELATED PROBLEM?&#45;&#45;PROGRESS AND ACHIEVEMENT</title>
<path fill="none" stroke="black" d="M1005.92,-146.67C1095.83,-134.33 1224.63,-116.65 1312.82,-104.54"/>
</g>
<!-- ANALOGY -->
<g id="node40" class="node">
<title>ANALOGY</title>
<ellipse fill="none" stroke="black" cx="2794.49" cy="-90" rx="57.69" ry="18"/>
<text text-anchor="middle" x="2794.49" y="-86.3" font-family="Times,serif" font-size="14.00">ANALOGY</text>
</g>
<!-- DO YOU KNOW A RELATED PROBLEM?&#45;&#45;ANALOGY -->
<g id="edge45" class="edge">
<title>DO YOU KNOW A RELATED PROBLEM?&#45;&#45;ANALOGY</title>
<path fill="none" stroke="black" d="M1036.51,-148.79C1060.79,-146.93 1085.88,-145.23 1109.49,-144 1468.65,-125.34 2371.13,-156.54 2727.49,-108 2736.05,-106.83 2745.09,-104.98 2753.67,-102.92"/>
</g>
<!-- GENERALIZATION -->
<g id="node41" class="node">
<title>GENERALIZATION</title>
<ellipse fill="none" stroke="black" cx="2619.49" cy="-90" rx="98.58" ry="18"/>
<text text-anchor="middle" x="2619.49" y="-86.3" font-family="Times,serif" font-size="14.00">GENERALIZATION</text>
</g>
<!-- DO YOU KNOW A RELATED PROBLEM?&#45;&#45;GENERALIZATION -->
<g id="edge46" class="edge">
<title>DO YOU KNOW A RELATED PROBLEM?&#45;&#45;GENERALIZATION</title>
<path fill="none" stroke="black" d="M1036.8,-148.84C1060.99,-146.98 1085.97,-145.26 1109.49,-144 1731.91,-110.6 1890.74,-164.58 2511.49,-108 2524.43,-106.82 2538.19,-105.05 2551.38,-103.1"/>
</g>
<!-- AUXILIARY PROBLEM&#45;&#45;LOOK AT THE UNKNOWN -->
<g id="edge47" class="edge">
<title>AUXILIARY PROBLEM&#45;&#45;LOOK AT THE UNKNOWN</title>
<path fill="none" stroke="black" d="M2369.92,-148.84C2354.87,-146.9 2339.22,-145.16 2324.49,-144 1562.23,-83.97 1367.25,-161.19 604.49,-108 587.78,-106.83 570.02,-105.11 552.9,-103.21"/>
</g>
<!-- AUXILIARY PROBLEM&#45;&#45;ANALOGY -->
<g id="edge48" class="edge">
<title>AUXILIARY PROBLEM&#45;&#45;ANALOGY</title>
<path fill="none" stroke="black" d="M2522.46,-148.21C2578.83,-138.16 2658.29,-123.34 2727.49,-108 2735.34,-106.26 2743.67,-104.27 2751.69,-102.27"/>
</g>
<!-- AUXILIARY PROBLEM&#45;&#45;GENERALIZATION -->
<g id="edge49" class="edge">
<title>AUXILIARY PROBLEM&#45;&#45;GENERALIZATION</title>
<path fill="none" stroke="black" d="M2487.72,-144.94C2515.82,-133.44 2553.46,-118.03 2581.32,-106.62"/>
</g>
<!-- INDUCTION AND MATHEMATICAL INDUCTION -->
<g id="node42" class="node">
<title>INDUCTION AND MATHEMATICAL INDUCTION</title>
<ellipse fill="none" stroke="black" cx="3581.49" cy="-90" rx="235.06" ry="18"/>
<text text-anchor="middle" x="3581.49" y="-86.3" font-family="Times,serif" font-size="14.00">INDUCTION AND MATHEMATICAL INDUCTION</text>
</g>
<!-- AUXILIARY PROBLEM&#45;&#45;INDUCTION AND MATHEMATICAL INDUCTION -->
<g id="edge50" class="edge">
<title>AUXILIARY PROBLEM&#45;&#45;INDUCTION AND MATHEMATICAL INDUCTION</title>
<path fill="none" stroke="black" d="M2527.76,-148.97C2542.28,-147.07 2557.32,-145.31 2571.49,-144 2910.86,-112.64 2997.24,-127.85 3337.49,-108 3363.35,-106.49 3390.74,-104.74 3417.46,-102.94"/>
</g>
<!-- INVENTOR’S PARADOX -->
<g id="node43" class="node">
<title>INVENTOR’S PARADOX</title>
<ellipse fill="none" stroke="black" cx="2382.49" cy="-90" rx="120.48" ry="18"/>
<text text-anchor="middle" x="2382.49" y="-86.3" font-family="Times,serif" font-size="14.00">INVENTOR’S PARADOX</text>
</g>
<!-- AUXILIARY PROBLEM&#45;&#45;INVENTOR’S PARADOX -->
<g id="edge51" class="edge">
<title>AUXILIARY PROBLEM&#45;&#45;INVENTOR’S PARADOX</title>
<path fill="none" stroke="black" d="M2432.51,-144.05C2422.29,-133.21 2409.06,-119.18 2398.77,-108.28"/>
</g>
<!-- IF YOU CANNOT SOLVE THE PROPOSED PROBLEM&#45;&#45;ANALOGY -->
<g id="edge52" class="edge">
<title>IF YOU CANNOT SOLVE THE PROPOSED PROBLEM&#45;&#45;ANALOGY</title>
<path fill="none" stroke="black" d="M2826.86,-143.7C2820.19,-132.85 2811.64,-118.92 2804.99,-108.1"/>
</g>
<!-- IF YOU CANNOT SOLVE THE PROPOSED PROBLEM&#45;&#45;GENERALIZATION -->
<g id="edge53" class="edge">
<title>IF YOU CANNOT SOLVE THE PROPOSED PROBLEM&#45;&#45;GENERALIZATION</title>
<path fill="none" stroke="black" d="M2785.55,-144.32C2749.28,-132.68 2701.27,-117.26 2666.2,-106"/>
</g>
<!-- VARIATION OF THE PROBLEM&#45;&#45;AUXILIARY ELEMENTS -->
<g id="edge54" class="edge">
<title>VARIATION OF THE PROBLEM&#45;&#45;AUXILIARY ELEMENTS</title>
<path fill="none" stroke="black" d="M2110.24,-144.94C2074.13,-133.4 2025.7,-117.92 1989.99,-106.5"/>
</g>
<!-- VARIATION OF THE PROBLEM&#45;&#45;ANALOGY -->
<g id="edge55" class="edge">
<title>VARIATION OF THE PROBLEM&#45;&#45;ANALOGY</title>
<path fill="none" stroke="black" d="M2271.41,-149.37C2289.48,-147.53 2308,-145.68 2325.49,-144 2504.04,-126.81 2550.66,-138.15 2727.49,-108 2735.77,-106.59 2744.53,-104.68 2752.89,-102.65"/>
</g>
<!-- VARIATION OF THE PROBLEM&#45;&#45;GENERALIZATION -->
<g id="edge56" class="edge">
<title>VARIATION OF THE PROBLEM&#45;&#45;GENERALIZATION</title>
<path fill="none" stroke="black" d="M2251.78,-147.37C2322.64,-136.76 2423.32,-121.6 2511.49,-108 2523.12,-106.21 2535.45,-104.28 2547.46,-102.4"/>
</g>
<!-- DEFINITION&#45;&#45;COULD YOU DERIVE SOMETHING USEFUL FROM THE DATA? -->
<g id="edge57" class="edge">
<title>DEFINITION&#45;&#45;COULD YOU DERIVE SOMETHING USEFUL FROM THE DATA?</title>
<path fill="none" stroke="black" d="M199.45,-149.18C209.05,-147.21 219.05,-145.37 228.49,-144 319.41,-130.8 547.57,-114.52 717.2,-103.51"/>
</g>
<!-- DEFINITION&#45;&#45;LOOK AT THE UNKNOWN -->
<g id="edge58" class="edge">
<title>DEFINITION&#45;&#45;LOOK AT THE UNKNOWN</title>
<path fill="none" stroke="black" d="M200.66,-149.52C253.99,-137.55 337.75,-118.76 395.9,-105.71"/>
</g>
<!-- CAN YOU USE THE RESULT? -->
<g id="node44" class="node">
<title>CAN YOU USE THE RESULT?</title>
<ellipse fill="none" stroke="black" cx="149.49" cy="-90" rx="149.47" ry="18"/>
<text text-anchor="middle" x="149.49" y="-86.3" font-family="Times,serif" font-size="14.00">CAN YOU USE THE RESULT?</text>
</g>
<!-- DEFINITION&#45;&#45;CAN YOU USE THE RESULT? -->
<g id="edge59" class="edge">
<title>DEFINITION&#45;&#45;CAN YOU USE THE RESULT?</title>
<path fill="none" stroke="black" d="M149.49,-143.7C149.49,-132.85 149.49,-118.92 149.49,-108.1"/>
</g>
<!-- SYMMETRY&#45;&#45;AUXILIARY ELEMENTS -->
<g id="edge60" class="edge">
<title>SYMMETRY&#45;&#45;AUXILIARY ELEMENTS</title>
<path fill="none" stroke="black" d="M1231.72,-149.34C1241.2,-147.31 1251.13,-145.4 1260.49,-144 1457.51,-114.45 1689.22,-100.86 1825.24,-95.01"/>
</g>
<!-- CAN YOU CHECK THE RESULT?&#45;&#45;GENERALIZATION -->
<g id="edge61" class="edge">
<title>CAN YOU CHECK THE RESULT?&#45;&#45;GENERALIZATION</title>
<path fill="none" stroke="black" d="M3633.03,-148.94C3613.2,-147.1 3592.75,-145.36 3573.49,-144 3198.07,-117.59 3101.97,-145.32 2727.49,-108 2714.74,-106.73 2701.2,-104.95 2688.18,-103.01"/>
</g>
<!-- TEST BY DIMENSION -->
<g id="node45" class="node">
<title>TEST BY DIMENSION</title>
<ellipse fill="none" stroke="black" cx="3947.49" cy="-90" rx="113.18" ry="18"/>
<text text-anchor="middle" x="3947.49" y="-86.3" font-family="Times,serif" font-size="14.00">TEST BY DIMENSION</text>
</g>
<!-- CAN YOU CHECK THE RESULT?&#45;&#45;TEST BY DIMENSION -->
<g id="edge62" class="edge">
<title>CAN YOU CHECK THE RESULT?&#45;&#45;TEST BY DIMENSION</title>
<path fill="none" stroke="black" d="M3793.36,-144.68C3826.3,-133.2 3870.12,-117.94 3902.61,-106.63"/>
</g>
<!-- PAPPUS&#45;&#45;THE INTELLIGENT READER -->
<g id="edge63" class="edge">
<title>PAPPUS&#45;&#45;THE INTELLIGENT READER</title>
<path fill="none" stroke="black" d="M4759.82,-152.56C4741.94,-149.29 4720.77,-145.88 4701.49,-144 4097.93,-85.03 3942.51,-149.31 3337.49,-108 3319.77,-106.79 3300.96,-105.08 3282.79,-103.19"/>
</g>
<!-- PAPPUS&#45;&#45;INDUCTION AND MATHEMATICAL INDUCTION -->
<g id="edge64" class="edge">
<title>PAPPUS&#45;&#45;INDUCTION AND MATHEMATICAL INDUCTION</title>
<path fill="none" stroke="black" d="M4759.32,-152.61C4741.54,-149.39 4720.58,-146.01 4701.49,-144 4313.96,-103.26 4214.55,-129.54 3825.49,-108 3799.31,-106.55 3771.56,-104.81 3744.52,-103.01"/>
</g>
<!-- PAPPUS&#45;&#45;TEST BY DIMENSION -->
<g id="edge65" class="edge">
<title>PAPPUS&#45;&#45;TEST BY DIMENSION</title>
<path fill="none" stroke="black" d="M4759.3,-152.76C4741.52,-149.56 4720.56,-146.16 4701.49,-144 4421.93,-112.37 4349.49,-135.44 4069.49,-108 4055.55,-106.63 4040.75,-104.85 4026.46,-102.96"/>
</g>
<!-- BOLZANO -->
<g id="node46" class="node">
<title>BOLZANO</title>
<ellipse fill="none" stroke="black" cx="6280.49" cy="-90" rx="58.49" ry="18"/>
<text text-anchor="middle" x="6280.49" y="-86.3" font-family="Times,serif" font-size="14.00">BOLZANO</text>
</g>
<!-- PAPPUS&#45;&#45;BOLZANO -->
<g id="edge66" class="edge">
<title>PAPPUS&#45;&#45;BOLZANO</title>
<path fill="none" stroke="black" d="M4836.12,-149.27C4843.73,-147.13 4851.82,-145.21 4859.49,-144 5453.74,-50.62 5616.48,-189.43 6212.49,-108 6221.17,-106.81 6230.34,-104.95 6239.05,-102.88"/>
</g>
<!-- COROLLARY -->
<g id="node47" class="node">
<title>COROLLARY</title>
<ellipse fill="none" stroke="black" cx="5458.49" cy="-90" rx="69.59" ry="18"/>
<text text-anchor="middle" x="5458.49" y="-86.3" font-family="Times,serif" font-size="14.00">COROLLARY</text>
</g>
<!-- PAPPUS&#45;&#45;COROLLARY -->
<g id="edge67" class="edge">
<title>PAPPUS&#45;&#45;COROLLARY</title>
<path fill="none" stroke="black" d="M4836.47,-149.43C4843.99,-147.31 4851.95,-145.35 4859.49,-144 5087.53,-103.18 5150.11,-140.45 5379.49,-108 5389.07,-106.64 5399.23,-104.78 5408.95,-102.79"/>
</g>
<!-- DESCARTES -->
<g id="node48" class="node">
<title>DESCARTES</title>
<ellipse fill="none" stroke="black" cx="6559.49" cy="-90" rx="70.39" ry="18"/>
<text text-anchor="middle" x="6559.49" y="-86.3" font-family="Times,serif" font-size="14.00">DESCARTES</text>
</g>
<!-- PAPPUS&#45;&#45;DESCARTES -->
<g id="edge68" class="edge">
<title>PAPPUS&#45;&#45;DESCARTES</title>
<path fill="none" stroke="black" d="M4836.11,-149.24C4843.73,-147.11 4851.81,-145.19 4859.49,-144 5215.55,-88.85 6122.64,-150.09 6480.49,-108 6490.38,-106.84 6500.86,-105.01 6510.84,-102.98"/>
</g>
<!-- DIAGNOSIS -->
<g id="node49" class="node">
<title>DIAGNOSIS</title>
<ellipse fill="none" stroke="black" cx="5612.49" cy="-90" rx="66.09" ry="18"/>
<text text-anchor="middle" x="5612.49" y="-86.3" font-family="Times,serif" font-size="14.00">DIAGNOSIS</text>
</g>
<!-- PAPPUS&#45;&#45;DIAGNOSIS -->
<g id="edge69" class="edge">
<title>PAPPUS&#45;&#45;DIAGNOSIS</title>
<path fill="none" stroke="black" d="M4836.45,-149.33C4843.98,-147.23 4851.94,-145.29 4859.49,-144 5156.94,-93.22 5238.6,-149.5 5537.49,-108 5546.74,-106.71 5556.55,-104.86 5565.9,-102.85"/>
</g>
<!-- LEIBNITZ -->
<g id="node50" class="node">
<title>LEIBNITZ</title>
<ellipse fill="none" stroke="black" cx="6414.49" cy="-90" rx="57.39" ry="18"/>
<text text-anchor="middle" x="6414.49" y="-86.3" font-family="Times,serif" font-size="14.00">LEIBNITZ</text>
</g>
<!-- PAPPUS&#45;&#45;LEIBNITZ -->
<g id="edge70" class="edge">
<title>PAPPUS&#45;&#45;LEIBNITZ</title>
<path fill="none" stroke="black" d="M4836.12,-149.25C4843.73,-147.12 4851.81,-145.2 4859.49,-144 5186.3,-93.05 6019.79,-152.96 6347.49,-108 6356.17,-106.81 6365.34,-104.92 6374.03,-102.82"/>
</g>
<!-- LEMMA -->
<g id="node51" class="node">
<title>LEMMA</title>
<ellipse fill="none" stroke="black" cx="4308.49" cy="-90" rx="48.19" ry="18"/>
<text text-anchor="middle" x="4308.49" y="-86.3" font-family="Times,serif" font-size="14.00">LEMMA</text>
</g>
<!-- PAPPUS&#45;&#45;LEMMA -->
<g id="edge71" class="edge">
<title>PAPPUS&#45;&#45;LEMMA</title>
<path fill="none" stroke="black" d="M4758.75,-153.14C4741.07,-150.04 4720.33,-146.61 4701.49,-144 4552.72,-123.4 4512.73,-137.59 4365.49,-108 4358.3,-106.56 4350.71,-104.6 4343.5,-102.54"/>
</g>
<!-- REDUCTIO AD ABSURDUM AND INDIRECT PROOF -->
<g id="node52" class="node">
<title>REDUCTIO AD ABSURDUM AND INDIRECT PROOF</title>
<ellipse fill="none" stroke="black" cx="5950.49" cy="-90" rx="253.46" ry="18"/>
<text text-anchor="middle" x="5950.49" y="-86.3" font-family="Times,serif" font-size="14.00">REDUCTIO AD ABSURDUM AND INDIRECT PROOF</text>
</g>
<!-- PAPPUS&#45;&#45;REDUCTIO AD ABSURDUM AND INDIRECT PROOF -->
<g id="edge72" class="edge">
<title>PAPPUS&#45;&#45;REDUCTIO AD ABSURDUM AND INDIRECT PROOF</title>
<path fill="none" stroke="black" d="M4836.44,-149.28C4843.97,-147.17 4851.93,-145.25 4859.49,-144 5222.87,-83.76 5319.68,-127.88 5687.49,-108 5715.36,-106.49 5744.88,-104.74 5773.68,-102.94"/>
</g>
<!-- ROUTINE PROBLEM -->
<g id="node53" class="node">
<title>ROUTINE PROBLEM</title>
<ellipse fill="none" stroke="black" cx="6756.49" cy="-90" rx="108.58" ry="18"/>
<text text-anchor="middle" x="6756.49" y="-86.3" font-family="Times,serif" font-size="14.00">ROUTINE PROBLEM</text>
</g>
<!-- PAPPUS&#45;&#45;ROUTINE PROBLEM -->
<g id="edge73" class="edge">
<title>PAPPUS&#45;&#45;ROUTINE PROBLEM</title>
<path fill="none" stroke="black" d="M4836.11,-149.23C4843.73,-147.1 4851.81,-145.18 4859.49,-144 5250.3,-83.86 6244.39,-140.25 6638.49,-108 6652.62,-106.84 6667.63,-105.09 6682.05,-103.14"/>
</g>
<!-- TERMS, OLD AND NEW -->
<g id="node54" class="node">
<title>TERMS, OLD AND NEW</title>
<ellipse fill="none" stroke="black" cx="4497.49" cy="-90" rx="122.68" ry="18"/>
<text text-anchor="middle" x="4497.49" y="-86.3" font-family="Times,serif" font-size="14.00">TERMS, OLD AND NEW</text>
</g>
<!-- PAPPUS&#45;&#45;TERMS, OLD AND NEW -->
<g id="edge74" class="edge">
<title>PAPPUS&#45;&#45;TERMS, OLD AND NEW</title>
<path fill="none" stroke="black" d="M4761.12,-151.7C4709.84,-139.9 4620.78,-119.39 4560.52,-105.51"/>
</g>
<!-- THE FUTURE MATHEMATICIAN -->
<g id="node55" class="node">
<title>THE FUTURE MATHEMATICIAN</title>
<ellipse fill="none" stroke="black" cx="4801.49" cy="-90" rx="163.27" ry="18"/>
<text text-anchor="middle" x="4801.49" y="-86.3" font-family="Times,serif" font-size="14.00">THE FUTURE MATHEMATICIAN</text>
</g>
<!-- PAPPUS&#45;&#45;THE FUTURE MATHEMATICIAN -->
<g id="edge75" class="edge">
<title>PAPPUS&#45;&#45;THE FUTURE MATHEMATICIAN</title>
<path fill="none" stroke="black" d="M4801.49,-143.7C4801.49,-132.85 4801.49,-118.92 4801.49,-108.1"/>
</g>
<!-- THE INTELLIGENT PROBLEM&#45;SOLVER -->
<g id="node56" class="node">
<title>THE INTELLIGENT PROBLEM&#45;SOLVER</title>
<ellipse fill="none" stroke="black" cx="5176.49" cy="-90" rx="194.17" ry="18"/>
<text text-anchor="middle" x="5176.49" y="-86.3" font-family="Times,serif" font-size="14.00">THE INTELLIGENT PROBLEM&#45;SOLVER</text>
</g>
<!-- PAPPUS&#45;&#45;THE INTELLIGENT PROBLEM&#45;SOLVER -->
<g id="edge76" class="edge">
<title>PAPPUS&#45;&#45;THE INTELLIGENT PROBLEM&#45;SOLVER</title>
<path fill="none" stroke="black" d="M4837.51,-149.72C4844.75,-147.66 4852.33,-145.64 4859.49,-144 4929.92,-127.85 5010.21,-114.48 5072.37,-105.2"/>
</g>
<!-- WHY PROOFS? -->
<g id="node57" class="node">
<title>WHY PROOFS?</title>
<ellipse fill="none" stroke="black" cx="4160.49" cy="-90" rx="81.79" ry="18"/>
<text text-anchor="middle" x="4160.49" y="-86.3" font-family="Times,serif" font-size="14.00">WHY PROOFS?</text>
</g>
<!-- PAPPUS&#45;&#45;WHY PROOFS? -->
<g id="edge77" class="edge">
<title>PAPPUS&#45;&#45;WHY PROOFS?</title>
<path fill="none" stroke="black" d="M4759.28,-152.97C4741.49,-149.81 4720.53,-146.38 4701.49,-144 4502.39,-119.16 4450.37,-134.46 4251.49,-108 4240.81,-106.58 4229.49,-104.74 4218.6,-102.79"/>
</g>
<!-- SPECIALIZATION&#45;&#45;AUXILIARY ELEMENTS -->
<g id="edge78" class="edge">
<title>SPECIALIZATION&#45;&#45;AUXILIARY ELEMENTS</title>
<path fill="none" stroke="black" d="M3140.9,-149.01C3128.52,-147.06 3115.63,-145.26 3103.49,-144 2727.4,-104.85 2631.16,-126.29 2253.49,-108 2186.57,-104.76 2111.61,-100.69 2051.93,-97.34"/>
</g>
<!-- SPECIALIZATION&#45;&#45;GENERALIZATION -->
<g id="edge79" class="edge">
<title>SPECIALIZATION&#45;&#45;GENERALIZATION</title>
<path fill="none" stroke="black" d="M3139.47,-149.31C3127.52,-147.39 3115.15,-145.53 3103.49,-144 2937.03,-122.19 2894.04,-129.06 2727.49,-108 2715.25,-106.45 2702.26,-104.59 2689.69,-102.68"/>
</g>
<!-- BRIGHT IDEA -->
<g id="node58" class="node">
<title>BRIGHT IDEA</title>
<ellipse fill="none" stroke="black" cx="2945.49" cy="-90" rx="75.29" ry="18"/>
<text text-anchor="middle" x="2945.49" y="-86.3" font-family="Times,serif" font-size="14.00">BRIGHT IDEA</text>
</g>
<!-- SPECIALIZATION&#45;&#45;BRIGHT IDEA -->
<g id="edge80" class="edge">
<title>SPECIALIZATION&#45;&#45;BRIGHT IDEA</title>
<path fill="none" stroke="black" d="M3153.5,-147C3106.82,-134.43 3038.84,-116.13 2993.44,-103.91"/>
</g>
<!-- DETERMINATION, HOPE, SUCCESS&#45;&#45;ROUTINE PROBLEM -->
<g id="edge81" class="edge">
<title>DETERMINATION, HOPE, SUCCESS&#45;&#45;ROUTINE PROBLEM</title>
<path fill="none" stroke="black" d="M6727.13,-143.7C6733.17,-132.85 6740.93,-118.92 6746.96,-108.1"/>
</g>
<!-- HEURISTIC&#45;&#45;BOLZANO -->
<g id="edge82" class="edge">
<title>HEURISTIC&#45;&#45;BOLZANO</title>
<path fill="none" stroke="black" d="M6385.41,-145.81C6362.78,-133.99 6331.54,-117.67 6309.05,-105.92"/>
</g>
<!-- HEURISTIC&#45;&#45;DESCARTES -->
<g id="edge83" class="edge">
<title>HEURISTIC&#45;&#45;DESCARTES</title>
<path fill="none" stroke="black" d="M6445.59,-145.98C6469.97,-134.21 6503.75,-117.91 6528.18,-106.11"/>
</g>
<!-- HEURISTIC&#45;&#45;LEIBNITZ -->
<g id="edge84" class="edge">
<title>HEURISTIC&#45;&#45;LEIBNITZ</title>
<path fill="none" stroke="black" d="M6414.49,-143.7C6414.49,-132.85 6414.49,-118.92 6414.49,-108.1"/>
</g>
<!-- MODERN HEURISTIC -->
<g id="node59" class="node">
<title>MODERN HEURISTIC</title>
<ellipse fill="none" stroke="black" cx="6997.49" cy="-90" rx="114.28" ry="18"/>
<text text-anchor="middle" x="6997.49" y="-86.3" font-family="Times,serif" font-size="14.00">MODERN HEURISTIC</text>
</g>
<!-- HEURISTIC&#45;&#45;MODERN HEURISTIC -->
<g id="edge85" class="edge">
<title>HEURISTIC&#45;&#45;MODERN HEURISTIC</title>
<path fill="none" stroke="black" d="M6469.59,-152.19C6487.98,-149.39 6508.59,-146.4 6527.49,-144 6681.3,-124.46 6720.56,-126.62 6874.49,-108 6887.86,-106.38 6902.04,-104.54 6915.83,-102.68"/>
</g>
<!-- HEURISTIC REASONING&#45;&#45;ANALOGY -->
<g id="edge86" class="edge">
<title>HEURISTIC REASONING&#45;&#45;ANALOGY</title>
<path fill="none" stroke="black" d="M4227.27,-148.86C4210.75,-146.95 4193.61,-145.21 4177.49,-144 3594.02,-100.18 3441.04,-188.44 2861.49,-108 2852.93,-106.81 2843.88,-104.95 2835.3,-102.88"/>
</g>
<!-- HEURISTIC REASONING&#45;&#45;INDUCTION AND MATHEMATICAL INDUCTION -->
<g id="edge87" class="edge">
<title>HEURISTIC REASONING&#45;&#45;INDUCTION AND MATHEMATICAL INDUCTION</title>
<path fill="none" stroke="black" d="M4223.86,-149.27C4208.39,-147.42 4192.49,-145.59 4177.49,-144 4028.6,-128.21 3858.45,-113.4 3738.17,-103.47"/>
</g>
<!-- HEURISTIC REASONING&#45;&#45;WHY PROOFS? -->
<g id="edge88" class="edge">
<title>HEURISTIC REASONING&#45;&#45;WHY PROOFS?</title>
<path fill="none" stroke="black" d="M4279.15,-144.59C4253.64,-133.07 4219.77,-117.77 4194.74,-106.47"/>
</g>
<!-- RULES OF DISCOVERY&#45;&#45;BRIGHT IDEA -->
<g id="edge89" class="edge">
<title>RULES OF DISCOVERY&#45;&#45;BRIGHT IDEA</title>
<path fill="none" stroke="black" d="M3965.34,-148.92C3950.11,-147.02 3934.34,-145.28 3919.49,-144 3525.06,-110.1 3422.52,-155.41 3029.49,-108 3019.29,-106.77 3008.49,-104.97 2998.15,-102.99"/>
</g>
<!-- SIGNS OF PROGRESS&#45;&#45;ANALOGY -->
<g id="edge90" class="edge">
<title>SIGNS OF PROGRESS&#45;&#45;ANALOGY</title>
<path fill="none" stroke="black" d="M4498.58,-148.82C4483.64,-146.9 4468.11,-145.16 4453.49,-144 4100.73,-115.92 3212.11,-155.82 2861.49,-108 2852.93,-106.83 2843.88,-104.98 2835.3,-102.91"/>
</g>
<!-- SIGNS OF PROGRESS&#45;&#45;LEMMA -->
<g id="edge91" class="edge">
<title>SIGNS OF PROGRESS&#45;&#45;LEMMA</title>
<path fill="none" stroke="black" d="M4516.99,-146.64C4474.48,-136.36 4416.35,-121.93 4365.49,-108 4358.71,-106.14 4351.52,-104.08 4344.6,-102.04"/>
</g>
<!-- CARRYING OUT -->
<g id="node60" class="node">
<title>CARRYING OUT</title>
<ellipse fill="none" stroke="black" cx="7215.49" cy="-90" rx="85.29" ry="18"/>
<text text-anchor="middle" x="7215.49" y="-86.3" font-family="Times,serif" font-size="14.00">CARRYING OUT</text>
</g>
<!-- WISDOM OF PROVERBS&#45;&#45;CARRYING OUT -->
<g id="edge92" class="edge">
<title>WISDOM OF PROVERBS&#45;&#45;CARRYING OUT</title>
<path fill="none" stroke="black" d="M7150.3,-144.05C7163.93,-132.97 7181.64,-118.55 7195.16,-107.55"/>
</g>
<!-- WORKING BACKWARDS&#45;&#45;COULD YOU DERIVE SOMETHING USEFUL FROM THE DATA? -->
<g id="edge93" class="edge">
<title>WORKING BACKWARDS&#45;&#45;COULD YOU DERIVE SOMETHING USEFUL FROM THE DATA?</title>
<path fill="none" stroke="black" d="M3355.84,-148.77C3339.81,-146.85 3323.16,-145.13 3307.49,-144 2389.31,-77.54 2156.49,-140.73 1236.49,-108 1201.62,-106.76 1164.61,-105.09 1128.66,-103.28"/>
</g>
<!-- WORKING BACKWARDS&#45;&#45;ANALOGY -->
<g id="edge94" class="edge">
<title>WORKING BACKWARDS&#45;&#45;ANALOGY</title>
<path fill="none" stroke="black" d="M3352.92,-149.22C3337.78,-147.35 3322.19,-145.53 3307.49,-144 3109.69,-123.39 3057.67,-140.57 2861.49,-108 2853.2,-106.62 2844.44,-104.73 2836.07,-102.7"/>
</g>
<!-- WORKING BACKWARDS&#45;&#45;BRIGHT IDEA -->
<g id="edge95" class="edge">
<title>WORKING BACKWARDS&#45;&#45;BRIGHT IDEA</title>
<path fill="none" stroke="black" d="M3350.72,-149.51C3232.18,-134.31 3037.37,-109.3 3029.49,-108 3019.8,-106.4 3009.52,-104.49 2999.61,-102.54"/>
</g>
<!-- HERE IS A PROBLEM RELATED TO YOURS AND SOLVED BEFORE -->
<g id="node61" class="node">
<title>HERE IS A PROBLEM RELATED TO YOURS AND SOLVED BEFORE</title>
<ellipse fill="none" stroke="black" cx="688.49" cy="-18" rx="324.94" ry="18"/>
<text text-anchor="middle" x="688.49" y="-14.3" font-family="Times,serif" font-size="14.00">HERE IS A PROBLEM RELATED TO YOURS AND SOLVED BEFORE</text>
</g>
<!-- LOOK AT THE UNKNOWN&#45;&#45;HERE IS A PROBLEM RELATED TO YOURS AND SOLVED BEFORE -->
<g id="edge96" class="edge">
<title>LOOK AT THE UNKNOWN&#45;&#45;HERE IS A PROBLEM RELATED TO YOURS AND SOLVED BEFORE</title>
<path fill="none" stroke="black" d="M512.43,-73.29C548.64,-62.12 597.2,-47.15 634.15,-35.76"/>
</g>
<!-- PROGRESS AND ACHIEVEMENT&#45;&#45;HERE IS A PROBLEM RELATED TO YOURS AND SOLVED BEFORE -->
<g id="edge97" class="edge">
<title>PROGRESS AND ACHIEVEMENT&#45;&#45;HERE IS A PROBLEM RELATED TO YOURS AND SOLVED BEFORE</title>
<path fill="none" stroke="black" d="M1292.41,-77.43C1273.69,-75.61 1254.56,-73.75 1236.49,-72 1103.41,-59.1 952.16,-44.48 842.32,-33.86"/>
</g>
<!-- HAVE YOU SEEN IT BEFORE? -->
<g id="node62" class="node">
<title>HAVE YOU SEEN IT BEFORE?</title>
<ellipse fill="none" stroke="black" cx="1411.49" cy="-18" rx="153.27" ry="18"/>
<text text-anchor="middle" x="1411.49" y="-14.3" font-family="Times,serif" font-size="14.00">HAVE YOU SEEN IT BEFORE?</text>
</g>
<!-- PROGRESS AND ACHIEVEMENT&#45;&#45;HAVE YOU SEEN IT BEFORE? -->
<g id="edge98" class="edge">
<title>PROGRESS AND ACHIEVEMENT&#45;&#45;HAVE YOU SEEN IT BEFORE?</title>
<path fill="none" stroke="black" d="M1411.49,-71.7C1411.49,-60.85 1411.49,-46.92 1411.49,-36.1"/>
</g>
<!-- CAN YOU DERIVE THE RESULT DIFFERENTLY? -->
<g id="node63" class="node">
<title>CAN YOU DERIVE THE RESULT DIFFERENTLY?</title>
<ellipse fill="none" stroke="black" cx="5375.49" cy="-18" rx="237.76" ry="18"/>
<text text-anchor="middle" x="5375.49" y="-14.3" font-family="Times,serif" font-size="14.00">CAN YOU DERIVE THE RESULT DIFFERENTLY?</text>
</g>
<!-- REDUCTIO AD ABSURDUM AND INDIRECT PROOF&#45;&#45;CAN YOU DERIVE THE RESULT DIFFERENTLY? -->
<g id="edge99" class="edge">
<title>REDUCTIO AD ABSURDUM AND INDIRECT PROOF&#45;&#45;CAN YOU DERIVE THE RESULT DIFFERENTLY?</title>
<path fill="none" stroke="black" d="M5828.9,-74.2C5730.68,-62.24 5593.2,-45.5 5495.43,-33.6"/>
</g>
<!-- THE FUTURE MATHEMATICIAN&#45;&#45;CAN YOU DERIVE THE RESULT DIFFERENTLY? -->
<g id="edge100" class="edge">
<title>THE FUTURE MATHEMATICIAN&#45;&#45;CAN YOU DERIVE THE RESULT DIFFERENTLY?</title>
<path fill="none" stroke="black" d="M4906.43,-76.2C5005.1,-64.17 5152.67,-46.17 5255.86,-33.59"/>
</g>
</g>
</svg>
